<mxfile host="app.diagrams.net" modified="2023-08-08T22:39:21.064Z" agent="Mozilla/5.0 (Windows NT 10.0; Win64; x64) AppleWebKit/537.36 (KHTML, like Gecko) Chrome/115.0.0.0 Safari/537.36 Edg/115.0.1901.188" etag="FxdWAErkB1MKfvvH9H4I" version="21.6.7" type="google">
  <diagram name="Page-1" id="64c3da0e-402f-94eb-ee01-a36477274f13">
    <mxGraphModel dx="2165" dy="541" grid="1" gridSize="10" guides="1" tooltips="1" connect="1" arrows="1" fold="1" page="1" pageScale="1" pageWidth="1169" pageHeight="826" background="none" math="0" shadow="0">
      <root>
        <mxCell id="0" />
        <mxCell id="1" parent="0" />
        <mxCell id="2" value="ID Tracking system" style="whiteSpace=wrap;rounded=1;shadow=1;fillColor=#10739E;strokeColor=none;fontColor=#FFFFFF;fontStyle=1;fontSize=24" parent="1" vertex="1">
          <mxGeometry x="2170" y="20" width="340" height="60" as="geometry" />
        </mxCell>
        <mxCell id="4" value="硬體採購" style="whiteSpace=wrap;rounded=1;fillColor=#F2931E;strokeColor=none;shadow=1;fontColor=#FFFFFF;fontStyle=1;fontSize=14" parent="1" vertex="1">
          <mxGeometry x="530" y="169.9999999999998" width="140" height="60" as="geometry" />
        </mxCell>
        <mxCell id="5" value="系統驗證" style="whiteSpace=wrap;rounded=1;fillColor=#F2931E;strokeColor=none;shadow=1;fontColor=#FFFFFF;fontStyle=1;fontSize=14" parent="1" vertex="1">
          <mxGeometry x="4360" y="169.9999999999998" width="140" height="60" as="geometry" />
        </mxCell>
        <mxCell id="6" value="韌體設計" style="whiteSpace=wrap;rounded=1;fillColor=#F2931E;strokeColor=none;shadow=1;fontColor=#FFFFFF;fontStyle=1;fontSize=14" parent="1" vertex="1">
          <mxGeometry x="900" y="169.9999999999998" width="140" height="60" as="geometry" />
        </mxCell>
        <mxCell id="7" value="軟體設計" style="whiteSpace=wrap;rounded=1;fillColor=#F2931E;strokeColor=none;shadow=1;fontColor=#FFFFFF;fontStyle=1;fontSize=14" parent="1" vertex="1">
          <mxGeometry x="2270" y="169.9999999999998" width="140" height="60" as="geometry" />
        </mxCell>
        <mxCell id="8" value="硬體安裝" style="whiteSpace=wrap;rounded=1;fillColor=#F2931E;strokeColor=none;shadow=1;fontColor=#FFFFFF;fontStyle=1;fontSize=14" parent="1" vertex="1">
          <mxGeometry x="3730" y="169.9999999999998" width="140" height="60" as="geometry" />
        </mxCell>
        <mxCell id="43" value="硬體採購" style="whiteSpace=wrap;rounded=1;fillColor=#12AAB5;strokeColor=none;shadow=1;fontColor=#FFFFFF;" parent="1" vertex="1">
          <mxGeometry x="439.9999999999998" y="300.0000000000001" width="120" height="60" as="geometry" />
        </mxCell>
        <mxCell id="44" value="硬體驗證" style="whiteSpace=wrap;rounded=1;fillColor=#12AAB5;strokeColor=none;shadow=1;fontColor=#FFFFFF;" parent="1" vertex="1">
          <mxGeometry x="639.9999999999998" y="300.0000000000001" width="120" height="60" as="geometry" />
        </mxCell>
        <mxCell id="45" value="RFID reader&#xa;AL-800" style="whiteSpace=wrap;rounded=1;fillColor=#999999;strokeColor=none;shadow=1;fontColor=#FFFFFF;fontStyle=0" parent="1" vertex="1">
          <mxGeometry x="439.9999999999997" y="400.0000000000001" width="120" height="60" as="geometry" />
        </mxCell>
        <mxCell id="46" value="HMI&#xa;Advantech&#xa;PWS-872" style="whiteSpace=wrap;rounded=1;fillColor=#999999;strokeColor=none;shadow=1;fontColor=#FFFFFF;fontStyle=0" parent="1" vertex="1">
          <mxGeometry x="439.9999999999999" y="480.0000000000001" width="120" height="60" as="geometry" />
        </mxCell>
        <mxCell id="47" value="Antenna&#xa;亞驪&#xa;AL326/AL528/AL080" style="whiteSpace=wrap;rounded=1;fillColor=#999999;strokeColor=none;shadow=1;fontColor=#FFFFFF;fontStyle=0" parent="1" vertex="1">
          <mxGeometry x="439.99999999999983" y="560.0000000000001" width="120" height="60" as="geometry" />
        </mxCell>
        <mxCell id="48" value="Cable&#xa;亞驪&#xa;(安裝前統計)" style="whiteSpace=wrap;rounded=1;fillColor=#999999;strokeColor=none;shadow=1;fontColor=#FFFFFF;fontStyle=0" parent="1" vertex="1">
          <mxGeometry x="440" y="640.0000000000001" width="120" height="60" as="geometry" />
        </mxCell>
        <mxCell id="49" value="Tag&#xa;永道&#xa;Flex350/Flex600" style="whiteSpace=wrap;rounded=1;fillColor=#999999;strokeColor=none;shadow=1;fontColor=#FFFFFF;fontStyle=0" parent="1" vertex="1">
          <mxGeometry x="440.0000000000001" y="720.0000000000001" width="120" height="60" as="geometry" />
        </mxCell>
        <mxCell id="50" value="RFID reader" style="whiteSpace=wrap;rounded=1;fillColor=#999999;strokeColor=none;shadow=1;fontColor=#FFFFFF;fontStyle=0" parent="1" vertex="1">
          <mxGeometry x="639.9999999999993" y="400.0000000000001" width="120" height="60" as="geometry" />
        </mxCell>
        <mxCell id="51" value="HMI" style="whiteSpace=wrap;rounded=1;fillColor=#999999;strokeColor=none;shadow=1;fontColor=#FFFFFF;fontStyle=0" parent="1" vertex="1">
          <mxGeometry x="639.9999999999995" y="480.0000000000001" width="120" height="60" as="geometry" />
        </mxCell>
        <mxCell id="52" value="Antenna" style="whiteSpace=wrap;rounded=1;fillColor=#999999;strokeColor=none;shadow=1;fontColor=#FFFFFF;fontStyle=0" parent="1" vertex="1">
          <mxGeometry x="639.9999999999995" y="560.0000000000001" width="120" height="60" as="geometry" />
        </mxCell>
        <mxCell id="53" value="Tag" style="whiteSpace=wrap;rounded=1;fillColor=#999999;strokeColor=none;shadow=1;fontColor=#FFFFFF;fontStyle=0" parent="1" vertex="1">
          <mxGeometry x="639.9999999999997" y="640.0000000000001" width="120" height="60" as="geometry" />
        </mxCell>
        <mxCell id="116" value="" style="edgeStyle=elbowEdgeStyle;elbow=vertical;rounded=0;fontColor=#000000;endArrow=none;endFill=0;strokeWidth=8;strokeColor=#23445D;" parent="1" source="4" target="43" edge="1">
          <mxGeometry width="100" height="100" relative="1" as="geometry">
            <mxPoint x="240" y="239.99999999999977" as="sourcePoint" />
            <mxPoint x="140" y="310" as="targetPoint" />
          </mxGeometry>
        </mxCell>
        <mxCell id="117" value="" style="edgeStyle=elbowEdgeStyle;elbow=vertical;rounded=0;fontColor=#000000;endArrow=none;endFill=0;strokeWidth=8;strokeColor=#23445D;" parent="1" source="4" target="44" edge="1">
          <mxGeometry width="100" height="100" relative="1" as="geometry">
            <mxPoint x="240" y="239.99999999999977" as="sourcePoint" />
            <mxPoint x="340" y="310" as="targetPoint" />
          </mxGeometry>
        </mxCell>
        <mxCell id="118" value="" style="edgeStyle=elbowEdgeStyle;elbow=horizontal;rounded=0;fontColor=#000000;endArrow=none;endFill=0;strokeWidth=8;strokeColor=#23445D;" parent="1" source="43" target="45" edge="1">
          <mxGeometry width="100" height="100" relative="1" as="geometry">
            <mxPoint x="420" y="330.00000000000045" as="sourcePoint" />
            <mxPoint x="429.99999999999955" y="430" as="targetPoint" />
            <Array as="points">
              <mxPoint x="420" y="380" />
            </Array>
          </mxGeometry>
        </mxCell>
        <mxCell id="119" value="" style="edgeStyle=elbowEdgeStyle;elbow=horizontal;rounded=0;fontColor=#000000;endArrow=none;endFill=0;strokeWidth=8;strokeColor=#23445D;" parent="1" source="43" target="46" edge="1">
          <mxGeometry width="100" height="100" relative="1" as="geometry">
            <mxPoint x="430" y="330" as="sourcePoint" />
            <mxPoint x="429.9999999999998" y="510" as="targetPoint" />
            <Array as="points">
              <mxPoint x="420" y="420" />
            </Array>
          </mxGeometry>
        </mxCell>
        <mxCell id="120" value="" style="edgeStyle=elbowEdgeStyle;elbow=horizontal;rounded=0;fontColor=#000000;endArrow=none;endFill=0;strokeWidth=8;strokeColor=#23445D;" parent="1" source="43" target="49" edge="1">
          <mxGeometry width="100" height="100" relative="1" as="geometry">
            <mxPoint x="430" y="330" as="sourcePoint" />
            <mxPoint x="430" y="750" as="targetPoint" />
            <Array as="points">
              <mxPoint x="420" y="550" />
            </Array>
          </mxGeometry>
        </mxCell>
        <mxCell id="121" value="" style="edgeStyle=elbowEdgeStyle;elbow=horizontal;rounded=0;fontColor=#000000;endArrow=none;endFill=0;strokeWidth=8;strokeColor=#23445D;" parent="1" source="43" target="48" edge="1">
          <mxGeometry width="100" height="100" relative="1" as="geometry">
            <mxPoint x="430" y="330" as="sourcePoint" />
            <mxPoint x="430" y="670" as="targetPoint" />
            <Array as="points">
              <mxPoint x="420" y="500" />
            </Array>
          </mxGeometry>
        </mxCell>
        <mxCell id="122" value="" style="edgeStyle=elbowEdgeStyle;elbow=horizontal;rounded=0;fontColor=#000000;endArrow=none;endFill=0;strokeWidth=8;strokeColor=#23445D;" parent="1" source="43" target="47" edge="1">
          <mxGeometry width="100" height="100" relative="1" as="geometry">
            <mxPoint x="430" y="330" as="sourcePoint" />
            <mxPoint x="429.9999999999998" y="590" as="targetPoint" />
            <Array as="points">
              <mxPoint x="420" y="470" />
            </Array>
          </mxGeometry>
        </mxCell>
        <mxCell id="123" value="" style="edgeStyle=elbowEdgeStyle;elbow=horizontal;rounded=0;fontColor=#000000;endArrow=none;endFill=0;strokeWidth=8;strokeColor=#23445D;" parent="1" source="44" target="50" edge="1">
          <mxGeometry width="100" height="100" relative="1" as="geometry">
            <mxPoint x="610" y="330.00000000000045" as="sourcePoint" />
            <mxPoint x="619.9999999999995" y="430" as="targetPoint" />
            <Array as="points">
              <mxPoint x="620" y="380" />
            </Array>
          </mxGeometry>
        </mxCell>
        <mxCell id="124" value="" style="edgeStyle=elbowEdgeStyle;elbow=horizontal;rounded=0;fontColor=#000000;endArrow=none;endFill=0;strokeWidth=8;strokeColor=#23445D;" parent="1" source="44" target="51" edge="1">
          <mxGeometry width="100" height="100" relative="1" as="geometry">
            <mxPoint x="620" y="330" as="sourcePoint" />
            <mxPoint x="619.9999999999998" y="510" as="targetPoint" />
            <Array as="points">
              <mxPoint x="620" y="420" />
            </Array>
          </mxGeometry>
        </mxCell>
        <mxCell id="126" value="" style="edgeStyle=elbowEdgeStyle;elbow=horizontal;rounded=0;fontColor=#000000;endArrow=none;endFill=0;strokeWidth=8;strokeColor=#23445D;" parent="1" source="44" target="53" edge="1">
          <mxGeometry width="100" height="100" relative="1" as="geometry">
            <mxPoint x="620" y="330" as="sourcePoint" />
            <mxPoint x="620" y="670" as="targetPoint" />
            <Array as="points">
              <mxPoint x="620" y="500" />
            </Array>
          </mxGeometry>
        </mxCell>
        <mxCell id="127" value="" style="edgeStyle=elbowEdgeStyle;elbow=horizontal;rounded=0;fontColor=#000000;endArrow=none;endFill=0;strokeWidth=8;strokeColor=#23445D;" parent="1" source="44" target="52" edge="1">
          <mxGeometry width="100" height="100" relative="1" as="geometry">
            <mxPoint x="620" y="330" as="sourcePoint" />
            <mxPoint x="619.9999999999998" y="590" as="targetPoint" />
            <Array as="points">
              <mxPoint x="620" y="470" />
            </Array>
          </mxGeometry>
        </mxCell>
        <mxCell id="133" value="AL-800" style="whiteSpace=wrap;rounded=1;fillColor=#12AAB5;strokeColor=none;shadow=1;fontColor=#FFFFFF;" parent="1" vertex="1">
          <mxGeometry x="909.9999999999998" y="300.0000000000001" width="120" height="60" as="geometry" />
        </mxCell>
        <mxCell id="135" value="URC communication" style="whiteSpace=wrap;rounded=1;fillColor=#999999;strokeColor=none;shadow=1;fontColor=#FFFFFF;fontStyle=0" parent="1" vertex="1">
          <mxGeometry x="909.9999999999998" y="400.0000000000001" width="120" height="60" as="geometry" />
        </mxCell>
        <mxCell id="136" value="PreProcessor" style="whiteSpace=wrap;rounded=1;fillColor=#999999;strokeColor=none;shadow=1;fontColor=#FFFFFF;fontStyle=0" parent="1" vertex="1">
          <mxGeometry x="909.9999999999999" y="480.0000000000001" width="120" height="60" as="geometry" />
        </mxCell>
        <mxCell id="137" value="Socket client" style="whiteSpace=wrap;rounded=1;fillColor=#999999;strokeColor=none;shadow=1;fontColor=#FFFFFF;fontStyle=0" parent="1" vertex="1">
          <mxGeometry x="909.9999999999998" y="560.0000000000001" width="120" height="60" as="geometry" />
        </mxCell>
        <mxCell id="138" value="MQTT client" style="whiteSpace=wrap;rounded=1;fillColor=#999999;strokeColor=none;shadow=1;fontColor=#FFFFFF;fontStyle=0" parent="1" vertex="1">
          <mxGeometry x="910" y="640.0000000000001" width="120" height="60" as="geometry" />
        </mxCell>
        <mxCell id="139" value="Configuration" style="whiteSpace=wrap;rounded=1;fillColor=#999999;strokeColor=none;shadow=1;fontColor=#FFFFFF;fontStyle=0" parent="1" vertex="1">
          <mxGeometry x="910.0000000000001" y="720.0000000000001" width="120" height="60" as="geometry" />
        </mxCell>
        <mxCell id="145" value="" style="edgeStyle=elbowEdgeStyle;elbow=horizontal;rounded=0;fontColor=#000000;endArrow=none;endFill=0;strokeWidth=8;strokeColor=#23445D;" parent="1" source="133" target="135" edge="1">
          <mxGeometry width="100" height="100" relative="1" as="geometry">
            <mxPoint x="890" y="330.00000000000045" as="sourcePoint" />
            <mxPoint x="899.9999999999995" y="430" as="targetPoint" />
            <Array as="points">
              <mxPoint x="890" y="380" />
            </Array>
          </mxGeometry>
        </mxCell>
        <mxCell id="146" value="" style="edgeStyle=elbowEdgeStyle;elbow=horizontal;rounded=0;fontColor=#000000;endArrow=none;endFill=0;strokeWidth=8;strokeColor=#23445D;" parent="1" source="133" target="136" edge="1">
          <mxGeometry width="100" height="100" relative="1" as="geometry">
            <mxPoint x="900" y="330" as="sourcePoint" />
            <mxPoint x="899.9999999999998" y="510" as="targetPoint" />
            <Array as="points">
              <mxPoint x="890" y="420" />
            </Array>
          </mxGeometry>
        </mxCell>
        <mxCell id="147" value="" style="edgeStyle=elbowEdgeStyle;elbow=horizontal;rounded=0;fontColor=#000000;endArrow=none;endFill=0;strokeWidth=8;strokeColor=#23445D;" parent="1" source="133" target="139" edge="1">
          <mxGeometry width="100" height="100" relative="1" as="geometry">
            <mxPoint x="900" y="330" as="sourcePoint" />
            <mxPoint x="900" y="750" as="targetPoint" />
            <Array as="points">
              <mxPoint x="890" y="550" />
            </Array>
          </mxGeometry>
        </mxCell>
        <mxCell id="148" value="" style="edgeStyle=elbowEdgeStyle;elbow=horizontal;rounded=0;fontColor=#000000;endArrow=none;endFill=0;strokeWidth=8;strokeColor=#23445D;" parent="1" source="133" target="138" edge="1">
          <mxGeometry width="100" height="100" relative="1" as="geometry">
            <mxPoint x="900" y="330" as="sourcePoint" />
            <mxPoint x="900" y="670" as="targetPoint" />
            <Array as="points">
              <mxPoint x="890" y="500" />
            </Array>
          </mxGeometry>
        </mxCell>
        <mxCell id="149" value="" style="edgeStyle=elbowEdgeStyle;elbow=horizontal;rounded=0;fontColor=#000000;endArrow=none;endFill=0;strokeWidth=8;strokeColor=#23445D;" parent="1" source="133" target="137" edge="1">
          <mxGeometry width="100" height="100" relative="1" as="geometry">
            <mxPoint x="900" y="330" as="sourcePoint" />
            <mxPoint x="899.9999999999998" y="590" as="targetPoint" />
            <Array as="points">
              <mxPoint x="890" y="470" />
            </Array>
          </mxGeometry>
        </mxCell>
        <mxCell id="155" value="Core" style="whiteSpace=wrap;rounded=1;fillColor=#12AAB5;strokeColor=none;shadow=1;fontColor=#FFFFFF;" parent="1" vertex="1">
          <mxGeometry x="1179.9999999999998" y="300.0000000000002" width="120" height="60" as="geometry" />
        </mxCell>
        <mxCell id="156" value="UI" style="whiteSpace=wrap;rounded=1;fillColor=#12AAB5;strokeColor=none;shadow=1;fontColor=#FFFFFF;" parent="1" vertex="1">
          <mxGeometry x="2280" y="300.0000000000002" width="120" height="60" as="geometry" />
        </mxCell>
        <mxCell id="157" value="Study" style="whiteSpace=wrap;rounded=1;fillColor=#999999;strokeColor=none;shadow=1;fontColor=#FFFFFF;fontStyle=0" parent="1" vertex="1">
          <mxGeometry x="1179.9999999999998" y="400.0000000000002" width="120" height="60" as="geometry" />
        </mxCell>
        <mxCell id="158" value="Realization" style="whiteSpace=wrap;rounded=1;fillColor=#999999;strokeColor=none;shadow=1;fontColor=#FFFFFF;fontStyle=0" parent="1" vertex="1">
          <mxGeometry x="1180" y="640.0000000000002" width="120" height="60" as="geometry" />
        </mxCell>
        <mxCell id="159" value="Testing" style="whiteSpace=wrap;rounded=1;fillColor=#999999;strokeColor=none;shadow=1;fontColor=#FFFFFF;fontStyle=0" parent="1" vertex="1">
          <mxGeometry x="1179.9999999999998" y="720.0000000000002" width="120" height="60" as="geometry" />
        </mxCell>
        <mxCell id="162" value="Plan on figma" style="whiteSpace=wrap;rounded=1;fillColor=#999999;strokeColor=none;shadow=1;fontColor=#FFFFFF;fontStyle=0" parent="1" vertex="1">
          <mxGeometry x="2279.999999999999" y="400.0000000000002" width="120" height="60" as="geometry" />
        </mxCell>
        <mxCell id="163" value="實作" style="whiteSpace=wrap;rounded=1;fillColor=#999999;strokeColor=none;shadow=1;fontColor=#FFFFFF;fontStyle=0" parent="1" vertex="1">
          <mxGeometry x="2279.9999999999995" y="480.0000000000002" width="120" height="60" as="geometry" />
        </mxCell>
        <mxCell id="167" value="" style="edgeStyle=elbowEdgeStyle;elbow=horizontal;rounded=0;fontColor=#000000;endArrow=none;endFill=0;strokeWidth=8;strokeColor=#23445D;" parent="1" source="155" target="157" edge="1">
          <mxGeometry width="100" height="100" relative="1" as="geometry">
            <mxPoint x="1160" y="330.00000000000057" as="sourcePoint" />
            <mxPoint x="1169.9999999999995" y="430.0000000000001" as="targetPoint" />
            <Array as="points">
              <mxPoint x="1160" y="380.0000000000001" />
            </Array>
          </mxGeometry>
        </mxCell>
        <mxCell id="168" value="" style="edgeStyle=elbowEdgeStyle;elbow=horizontal;rounded=0;fontColor=#000000;endArrow=none;endFill=0;strokeWidth=8;strokeColor=#23445D;" parent="1" source="155" target="158" edge="1">
          <mxGeometry width="100" height="100" relative="1" as="geometry">
            <mxPoint x="1170" y="330.0000000000001" as="sourcePoint" />
            <mxPoint x="1169.9999999999998" y="510.0000000000001" as="targetPoint" />
            <Array as="points">
              <mxPoint x="1160" y="420.0000000000001" />
            </Array>
          </mxGeometry>
        </mxCell>
        <mxCell id="171" value="" style="edgeStyle=elbowEdgeStyle;elbow=horizontal;rounded=0;fontColor=#000000;endArrow=none;endFill=0;strokeWidth=8;strokeColor=#23445D;" parent="1" source="155" target="159" edge="1">
          <mxGeometry width="100" height="100" relative="1" as="geometry">
            <mxPoint x="1170" y="330.0000000000001" as="sourcePoint" />
            <mxPoint x="1169.9999999999998" y="590.0000000000001" as="targetPoint" />
            <Array as="points">
              <mxPoint x="1160" y="470.0000000000001" />
            </Array>
          </mxGeometry>
        </mxCell>
        <mxCell id="172" value="" style="edgeStyle=elbowEdgeStyle;elbow=horizontal;rounded=0;fontColor=#000000;endArrow=none;endFill=0;strokeWidth=8;strokeColor=#23445D;" parent="1" source="156" target="162" edge="1">
          <mxGeometry width="100" height="100" relative="1" as="geometry">
            <mxPoint x="2250" y="330.00000000000057" as="sourcePoint" />
            <mxPoint x="2259.9999999999995" y="430.0000000000001" as="targetPoint" />
            <Array as="points">
              <mxPoint x="2260" y="380.0000000000001" />
            </Array>
          </mxGeometry>
        </mxCell>
        <mxCell id="173" value="" style="edgeStyle=elbowEdgeStyle;elbow=horizontal;rounded=0;fontColor=#000000;endArrow=none;endFill=0;strokeWidth=8;strokeColor=#23445D;" parent="1" source="156" target="163" edge="1">
          <mxGeometry width="100" height="100" relative="1" as="geometry">
            <mxPoint x="2260" y="330.0000000000001" as="sourcePoint" />
            <mxPoint x="2260" y="510.0000000000001" as="targetPoint" />
            <Array as="points">
              <mxPoint x="2260" y="420.0000000000001" />
            </Array>
          </mxGeometry>
        </mxCell>
        <mxCell id="177" value="Tag與data matrix安裝" style="whiteSpace=wrap;rounded=1;fillColor=#12AAB5;strokeColor=none;shadow=1;fontColor=#FFFFFF;" parent="1" vertex="1">
          <mxGeometry x="3640" y="299.9999999999999" width="120" height="60" as="geometry" />
        </mxCell>
        <mxCell id="178" value="機台安裝" style="whiteSpace=wrap;rounded=1;fillColor=#12AAB5;strokeColor=none;shadow=1;fontColor=#FFFFFF;" parent="1" vertex="1">
          <mxGeometry x="3840" y="299.9999999999999" width="120" height="60" as="geometry" />
        </mxCell>
        <mxCell id="179" value="驗證架裝tag" style="whiteSpace=wrap;rounded=1;fillColor=#999999;strokeColor=none;shadow=1;fontColor=#FFFFFF;fontStyle=0" parent="1" vertex="1">
          <mxGeometry x="3640" y="399.9999999999999" width="120" height="60" as="geometry" />
        </mxCell>
        <mxCell id="180" value="編碼架裝tag" style="whiteSpace=wrap;rounded=1;fillColor=#999999;strokeColor=none;shadow=1;fontColor=#FFFFFF;fontStyle=0" parent="1" vertex="1">
          <mxGeometry x="3640" y="479.9999999999999" width="120" height="60" as="geometry" />
        </mxCell>
        <mxCell id="181" value="編碼軸tag" style="whiteSpace=wrap;rounded=1;fillColor=#999999;strokeColor=none;shadow=1;fontColor=#FFFFFF;fontStyle=0" parent="1" vertex="1">
          <mxGeometry x="3640" y="559.9999999999999" width="120" height="60" as="geometry" />
        </mxCell>
        <mxCell id="182" value="產生架裝data matrix貼紙" style="whiteSpace=wrap;rounded=1;fillColor=#999999;strokeColor=none;shadow=1;fontColor=#FFFFFF;fontStyle=0" parent="1" vertex="1">
          <mxGeometry x="3640" y="639.9999999999999" width="120" height="60" as="geometry" />
        </mxCell>
        <mxCell id="183" value="產生軸data matrix貼紙" style="whiteSpace=wrap;rounded=1;fillColor=#999999;strokeColor=none;shadow=1;fontColor=#FFFFFF;fontStyle=0" parent="1" vertex="1">
          <mxGeometry x="3640" y="719.9999999999999" width="120" height="60" as="geometry" />
        </mxCell>
        <mxCell id="184" value="by machine" style="whiteSpace=wrap;rounded=1;fillColor=#999999;strokeColor=none;shadow=1;fontColor=#FFFFFF;fontStyle=0" parent="1" vertex="1">
          <mxGeometry x="3839.999999999999" y="559.9999999999999" width="120" height="60" as="geometry" />
        </mxCell>
        <mxCell id="185" value="安裝MHI" style="whiteSpace=wrap;rounded=1;fillColor=#999999;strokeColor=none;shadow=1;fontColor=#FFFFFF;fontStyle=0" parent="1" vertex="1">
          <mxGeometry x="4060" y="559.9999999999999" width="120" height="60" as="geometry" />
        </mxCell>
        <mxCell id="189" value="" style="edgeStyle=elbowEdgeStyle;elbow=horizontal;rounded=0;fontColor=#000000;endArrow=none;endFill=0;strokeWidth=8;strokeColor=#23445D;" parent="1" source="177" target="179" edge="1">
          <mxGeometry width="100" height="100" relative="1" as="geometry">
            <mxPoint x="3620" y="330.0000000000002" as="sourcePoint" />
            <mxPoint x="3629.9999999999995" y="429.9999999999998" as="targetPoint" />
            <Array as="points">
              <mxPoint x="3620" y="379.9999999999998" />
            </Array>
          </mxGeometry>
        </mxCell>
        <mxCell id="190" value="" style="edgeStyle=elbowEdgeStyle;elbow=horizontal;rounded=0;fontColor=#000000;endArrow=none;endFill=0;strokeWidth=8;strokeColor=#23445D;" parent="1" source="177" target="180" edge="1">
          <mxGeometry width="100" height="100" relative="1" as="geometry">
            <mxPoint x="3630" y="329.9999999999998" as="sourcePoint" />
            <mxPoint x="3630" y="509.9999999999998" as="targetPoint" />
            <Array as="points">
              <mxPoint x="3620" y="419.9999999999998" />
            </Array>
          </mxGeometry>
        </mxCell>
        <mxCell id="191" value="" style="edgeStyle=elbowEdgeStyle;elbow=horizontal;rounded=0;fontColor=#000000;endArrow=none;endFill=0;strokeWidth=8;strokeColor=#23445D;" parent="1" source="177" target="183" edge="1">
          <mxGeometry width="100" height="100" relative="1" as="geometry">
            <mxPoint x="3630" y="329.9999999999998" as="sourcePoint" />
            <mxPoint x="3630" y="749.9999999999998" as="targetPoint" />
            <Array as="points">
              <mxPoint x="3620" y="549.9999999999998" />
            </Array>
          </mxGeometry>
        </mxCell>
        <mxCell id="192" value="" style="edgeStyle=elbowEdgeStyle;elbow=horizontal;rounded=0;fontColor=#000000;endArrow=none;endFill=0;strokeWidth=8;strokeColor=#23445D;" parent="1" source="177" target="182" edge="1">
          <mxGeometry width="100" height="100" relative="1" as="geometry">
            <mxPoint x="3630" y="329.9999999999998" as="sourcePoint" />
            <mxPoint x="3630" y="669.9999999999998" as="targetPoint" />
            <Array as="points">
              <mxPoint x="3620" y="499.9999999999998" />
            </Array>
          </mxGeometry>
        </mxCell>
        <mxCell id="193" value="" style="edgeStyle=elbowEdgeStyle;elbow=horizontal;rounded=0;fontColor=#000000;endArrow=none;endFill=0;strokeWidth=8;strokeColor=#23445D;" parent="1" source="177" target="181" edge="1">
          <mxGeometry width="100" height="100" relative="1" as="geometry">
            <mxPoint x="3630" y="329.9999999999998" as="sourcePoint" />
            <mxPoint x="3630" y="589.9999999999998" as="targetPoint" />
            <Array as="points">
              <mxPoint x="3620" y="469.9999999999998" />
            </Array>
          </mxGeometry>
        </mxCell>
        <mxCell id="194" value="" style="edgeStyle=elbowEdgeStyle;elbow=horizontal;rounded=0;fontColor=#000000;endArrow=none;endFill=0;strokeWidth=8;strokeColor=#23445D;" parent="1" source="178" target="184" edge="1">
          <mxGeometry width="100" height="100" relative="1" as="geometry">
            <mxPoint x="3810" y="330.0000000000002" as="sourcePoint" />
            <mxPoint x="3819.9999999999995" y="429.9999999999998" as="targetPoint" />
            <Array as="points">
              <mxPoint x="3820" y="379.9999999999998" />
            </Array>
          </mxGeometry>
        </mxCell>
        <mxCell id="195" value="" style="edgeStyle=elbowEdgeStyle;elbow=horizontal;rounded=0;fontColor=#000000;endArrow=none;endFill=0;strokeWidth=8;strokeColor=#23445D;exitX=1;exitY=0.5;exitDx=0;exitDy=0;" parent="1" source="184" target="185" edge="1">
          <mxGeometry width="100" height="100" relative="1" as="geometry">
            <mxPoint x="3810" y="489.9999999999998" as="sourcePoint" />
            <mxPoint x="3810" y="669.9999999999998" as="targetPoint" />
            <Array as="points">
              <mxPoint x="4000" y="590" />
            </Array>
          </mxGeometry>
        </mxCell>
        <mxCell id="199" value="初驗" style="whiteSpace=wrap;rounded=1;fillColor=#12AAB5;strokeColor=none;shadow=1;fontColor=#FFFFFF;" parent="1" vertex="1">
          <mxGeometry x="4270" y="299.9999999999997" width="120" height="60" as="geometry" />
        </mxCell>
        <mxCell id="200" value="最終驗收" style="whiteSpace=wrap;rounded=1;fillColor=#12AAB5;strokeColor=none;shadow=1;fontColor=#FFFFFF;" parent="1" vertex="1">
          <mxGeometry x="4470" y="299.9999999999997" width="120" height="60" as="geometry" />
        </mxCell>
        <mxCell id="201" value="HMI功能測試" style="whiteSpace=wrap;rounded=1;fillColor=#999999;strokeColor=none;shadow=1;fontColor=#FFFFFF;fontStyle=0" parent="1" vertex="1">
          <mxGeometry x="4270" y="399.9999999999997" width="120" height="60" as="geometry" />
        </mxCell>
        <mxCell id="202" value="Reader功能測試" style="whiteSpace=wrap;rounded=1;fillColor=#999999;strokeColor=none;shadow=1;fontColor=#FFFFFF;fontStyle=0" parent="1" vertex="1">
          <mxGeometry x="4270" y="479.9999999999997" width="120" height="60" as="geometry" />
        </mxCell>
        <mxCell id="203" value="系統功能測試" style="whiteSpace=wrap;rounded=1;fillColor=#999999;strokeColor=none;shadow=1;fontColor=#FFFFFF;fontStyle=0" parent="1" vertex="1">
          <mxGeometry x="4270" y="559.9999999999997" width="120" height="60" as="geometry" />
        </mxCell>
        <mxCell id="211" value="" style="edgeStyle=elbowEdgeStyle;elbow=horizontal;rounded=0;fontColor=#000000;endArrow=none;endFill=0;strokeWidth=8;strokeColor=#23445D;" parent="1" source="199" target="201" edge="1">
          <mxGeometry width="100" height="100" relative="1" as="geometry">
            <mxPoint x="4250" y="330.00000000000006" as="sourcePoint" />
            <mxPoint x="4260" y="429.9999999999996" as="targetPoint" />
            <Array as="points">
              <mxPoint x="4250" y="379.9999999999996" />
            </Array>
          </mxGeometry>
        </mxCell>
        <mxCell id="212" value="" style="edgeStyle=elbowEdgeStyle;elbow=horizontal;rounded=0;fontColor=#000000;endArrow=none;endFill=0;strokeWidth=8;strokeColor=#23445D;" parent="1" source="199" target="202" edge="1">
          <mxGeometry width="100" height="100" relative="1" as="geometry">
            <mxPoint x="4260" y="329.9999999999996" as="sourcePoint" />
            <mxPoint x="4260" y="509.9999999999996" as="targetPoint" />
            <Array as="points">
              <mxPoint x="4250" y="419.9999999999996" />
            </Array>
          </mxGeometry>
        </mxCell>
        <mxCell id="215" value="" style="edgeStyle=elbowEdgeStyle;elbow=horizontal;rounded=0;fontColor=#000000;endArrow=none;endFill=0;strokeWidth=8;strokeColor=#23445D;" parent="1" source="199" target="203" edge="1">
          <mxGeometry width="100" height="100" relative="1" as="geometry">
            <mxPoint x="4260" y="329.9999999999996" as="sourcePoint" />
            <mxPoint x="4260" y="589.9999999999995" as="targetPoint" />
            <Array as="points">
              <mxPoint x="4250" y="469.9999999999996" />
            </Array>
          </mxGeometry>
        </mxCell>
        <mxCell id="221" value="" style="edgeStyle=elbowEdgeStyle;elbow=vertical;rounded=0;fontColor=#000000;endArrow=none;endFill=0;strokeWidth=8;strokeColor=#23445D;" parent="1" source="6" target="133" edge="1">
          <mxGeometry width="100" height="100" relative="1" as="geometry">
            <mxPoint x="780" y="270" as="sourcePoint" />
            <mxPoint x="880" y="170" as="targetPoint" />
          </mxGeometry>
        </mxCell>
        <mxCell id="223" value="" style="edgeStyle=elbowEdgeStyle;elbow=vertical;rounded=0;fontColor=#000000;endArrow=none;endFill=0;strokeWidth=8;strokeColor=#23445D;" parent="1" source="7" target="155" edge="1">
          <mxGeometry width="100" height="100" relative="1" as="geometry">
            <mxPoint x="1340" y="300" as="sourcePoint" />
            <mxPoint x="1240" y="190" as="targetPoint" />
          </mxGeometry>
        </mxCell>
        <mxCell id="224" value="" style="edgeStyle=elbowEdgeStyle;elbow=vertical;rounded=0;fontColor=#000000;endArrow=none;endFill=0;strokeWidth=8;strokeColor=#23445D;" parent="1" source="7" target="156" edge="1">
          <mxGeometry width="100" height="100" relative="1" as="geometry">
            <mxPoint x="1430" y="290" as="sourcePoint" />
            <mxPoint x="1530" y="190" as="targetPoint" />
          </mxGeometry>
        </mxCell>
        <mxCell id="225" value="" style="edgeStyle=elbowEdgeStyle;elbow=vertical;rounded=0;fontColor=#000000;endArrow=none;endFill=0;strokeWidth=8;strokeColor=#23445D;" parent="1" target="177" edge="1">
          <mxGeometry width="100" height="100" relative="1" as="geometry">
            <mxPoint x="3800" y="230" as="sourcePoint" />
            <mxPoint x="3740" y="190" as="targetPoint" />
          </mxGeometry>
        </mxCell>
        <mxCell id="226" value="" style="edgeStyle=elbowEdgeStyle;elbow=vertical;rounded=0;fontColor=#000000;endArrow=none;endFill=0;strokeWidth=8;strokeColor=#23445D;" parent="1" source="8" target="178" edge="1">
          <mxGeometry width="100" height="100" relative="1" as="geometry">
            <mxPoint x="3870" y="290" as="sourcePoint" />
            <mxPoint x="3970" y="190" as="targetPoint" />
          </mxGeometry>
        </mxCell>
        <mxCell id="227" value="" style="edgeStyle=elbowEdgeStyle;elbow=vertical;rounded=0;fontColor=#000000;endArrow=none;endFill=0;strokeWidth=8;strokeColor=#23445D;" parent="1" source="5" target="199" edge="1">
          <mxGeometry width="100" height="100" relative="1" as="geometry">
            <mxPoint x="4250" y="290" as="sourcePoint" />
            <mxPoint x="4350" y="190" as="targetPoint" />
          </mxGeometry>
        </mxCell>
        <mxCell id="228" value="" style="edgeStyle=elbowEdgeStyle;elbow=vertical;rounded=0;fontColor=#000000;endArrow=none;endFill=0;strokeWidth=8;strokeColor=#23445D;" parent="1" source="5" target="200" edge="1">
          <mxGeometry width="100" height="100" relative="1" as="geometry">
            <mxPoint x="4510" y="290" as="sourcePoint" />
            <mxPoint x="4610" y="190" as="targetPoint" />
          </mxGeometry>
        </mxCell>
        <mxCell id="229" value="" style="edgeStyle=elbowEdgeStyle;elbow=vertical;rounded=0;fontColor=#000000;endArrow=none;endFill=0;strokeWidth=8;strokeColor=#23445D;entryX=0.5;entryY=0;entryDx=0;entryDy=0;" parent="1" source="2" target="4" edge="1">
          <mxGeometry width="100" height="100" relative="1" as="geometry">
            <mxPoint x="540" y="140" as="sourcePoint" />
            <mxPoint x="230" y="169.99999999999977" as="targetPoint" />
          </mxGeometry>
        </mxCell>
        <mxCell id="231" value="" style="edgeStyle=elbowEdgeStyle;elbow=vertical;rounded=0;fontColor=#000000;endArrow=none;endFill=0;strokeWidth=8;strokeColor=#23445D;" parent="1" source="2" target="6" edge="1">
          <mxGeometry width="100" height="100" relative="1" as="geometry">
            <mxPoint x="560" y="160" as="sourcePoint" />
            <mxPoint x="660" y="60" as="targetPoint" />
          </mxGeometry>
        </mxCell>
        <mxCell id="232" value="" style="edgeStyle=elbowEdgeStyle;elbow=vertical;rounded=0;fontColor=#000000;endArrow=none;endFill=0;strokeWidth=8;strokeColor=#23445D;" parent="1" source="2" target="7" edge="1">
          <mxGeometry width="100" height="100" relative="1" as="geometry">
            <mxPoint x="570" y="170" as="sourcePoint" />
            <mxPoint x="670" y="70" as="targetPoint" />
          </mxGeometry>
        </mxCell>
        <mxCell id="233" value="" style="edgeStyle=elbowEdgeStyle;elbow=vertical;rounded=0;fontColor=#000000;endArrow=none;endFill=0;strokeWidth=8;strokeColor=#23445D;" parent="1" source="2" target="8" edge="1">
          <mxGeometry width="100" height="100" relative="1" as="geometry">
            <mxPoint x="580" y="180" as="sourcePoint" />
            <mxPoint x="680" y="80" as="targetPoint" />
          </mxGeometry>
        </mxCell>
        <mxCell id="234" value="" style="edgeStyle=elbowEdgeStyle;elbow=vertical;rounded=0;fontColor=#000000;endArrow=none;endFill=0;strokeWidth=8;strokeColor=#23445D;" parent="1" source="2" target="5" edge="1">
          <mxGeometry width="100" height="100" relative="1" as="geometry">
            <mxPoint x="590" y="190" as="sourcePoint" />
            <mxPoint x="690" y="90" as="targetPoint" />
          </mxGeometry>
        </mxCell>
        <mxCell id="myqi20wE7shxtgtQEC9K-235" value="Tag&#xa;辰皓&#xa;類EXO800" style="whiteSpace=wrap;rounded=1;fillColor=#999999;strokeColor=none;shadow=1;fontColor=#FFFFFF;fontStyle=0" parent="1" vertex="1">
          <mxGeometry x="440.0000000000001" y="800.0000000000001" width="120" height="60" as="geometry" />
        </mxCell>
        <mxCell id="myqi20wE7shxtgtQEC9K-236" value="" style="edgeStyle=elbowEdgeStyle;elbow=horizontal;rounded=0;fontColor=#000000;endArrow=none;endFill=0;strokeWidth=8;strokeColor=#23445D;entryX=0;entryY=0.5;entryDx=0;entryDy=0;" parent="1" target="myqi20wE7shxtgtQEC9K-235" edge="1">
          <mxGeometry width="100" height="100" relative="1" as="geometry">
            <mxPoint x="440" y="330" as="sourcePoint" />
            <mxPoint x="440" y="750" as="targetPoint" />
            <Array as="points">
              <mxPoint x="420" y="550" />
            </Array>
          </mxGeometry>
        </mxCell>
        <mxCell id="myqi20wE7shxtgtQEC9K-237" value="Data Matrix&#xa;特多龍35*60mm&#xa;(確認中)" style="whiteSpace=wrap;rounded=1;fillColor=#999999;strokeColor=none;shadow=1;fontColor=#FFFFFF;fontStyle=0" parent="1" vertex="1">
          <mxGeometry x="440.0000000000001" y="880.0000000000001" width="120" height="60" as="geometry" />
        </mxCell>
        <mxCell id="myqi20wE7shxtgtQEC9K-238" value="" style="edgeStyle=elbowEdgeStyle;elbow=horizontal;rounded=0;fontColor=#000000;endArrow=none;endFill=0;strokeWidth=8;strokeColor=#23445D;entryX=0;entryY=0.5;entryDx=0;entryDy=0;" parent="1" target="myqi20wE7shxtgtQEC9K-237" edge="1">
          <mxGeometry width="100" height="100" relative="1" as="geometry">
            <mxPoint x="440" y="326" as="sourcePoint" />
            <mxPoint x="440" y="826" as="targetPoint" />
            <Array as="points">
              <mxPoint x="420" y="546" />
            </Array>
          </mxGeometry>
        </mxCell>
        <mxCell id="myqi20wE7shxtgtQEC9K-239" value="硬體選擇" style="whiteSpace=wrap;rounded=1;fillColor=#F2931E;strokeColor=none;shadow=1;fontColor=#FFFFFF;fontStyle=1;fontSize=14" parent="1" vertex="1">
          <mxGeometry x="150" y="169.9999999999998" width="140" height="60" as="geometry" />
        </mxCell>
        <mxCell id="myqi20wE7shxtgtQEC9K-240" value="硬體選擇" style="whiteSpace=wrap;rounded=1;fillColor=#12AAB5;strokeColor=none;shadow=1;fontColor=#FFFFFF;" parent="1" vertex="1">
          <mxGeometry x="159.99999999999977" y="300.0000000000001" width="120" height="60" as="geometry" />
        </mxCell>
        <mxCell id="myqi20wE7shxtgtQEC9K-241" value="Flex/Hard tag&#xa;selection" style="whiteSpace=wrap;rounded=1;fillColor=#999999;strokeColor=none;shadow=1;fontColor=#FFFFFF;fontStyle=0" parent="1" vertex="1">
          <mxGeometry x="159.99999999999972" y="400.0000000000001" width="120" height="60" as="geometry" />
        </mxCell>
        <mxCell id="myqi20wE7shxtgtQEC9K-242" value="Data Matrix&#xa;size selection" style="whiteSpace=wrap;rounded=1;fillColor=#999999;strokeColor=none;shadow=1;fontColor=#FFFFFF;fontStyle=0" parent="1" vertex="1">
          <mxGeometry x="159.9999999999999" y="480.0000000000001" width="120" height="60" as="geometry" />
        </mxCell>
        <mxCell id="myqi20wE7shxtgtQEC9K-246" value="" style="edgeStyle=elbowEdgeStyle;elbow=horizontal;rounded=0;fontColor=#000000;endArrow=none;endFill=0;strokeWidth=8;strokeColor=#23445D;" parent="1" source="myqi20wE7shxtgtQEC9K-240" target="myqi20wE7shxtgtQEC9K-241" edge="1">
          <mxGeometry width="100" height="100" relative="1" as="geometry">
            <mxPoint x="140" y="330.00000000000045" as="sourcePoint" />
            <mxPoint x="149.99999999999955" y="430" as="targetPoint" />
            <Array as="points">
              <mxPoint x="140" y="380" />
            </Array>
          </mxGeometry>
        </mxCell>
        <mxCell id="myqi20wE7shxtgtQEC9K-247" value="" style="edgeStyle=elbowEdgeStyle;elbow=horizontal;rounded=0;fontColor=#000000;endArrow=none;endFill=0;strokeWidth=8;strokeColor=#23445D;" parent="1" source="myqi20wE7shxtgtQEC9K-240" target="myqi20wE7shxtgtQEC9K-242" edge="1">
          <mxGeometry width="100" height="100" relative="1" as="geometry">
            <mxPoint x="150" y="330" as="sourcePoint" />
            <mxPoint x="149.99999999999977" y="510" as="targetPoint" />
            <Array as="points">
              <mxPoint x="140" y="420" />
            </Array>
          </mxGeometry>
        </mxCell>
        <mxCell id="myqi20wE7shxtgtQEC9K-255" value="" style="edgeStyle=elbowEdgeStyle;elbow=vertical;rounded=0;fontColor=#000000;endArrow=none;endFill=0;strokeWidth=8;strokeColor=#23445D;exitX=0.5;exitY=1;exitDx=0;exitDy=0;entryX=0.5;entryY=0;entryDx=0;entryDy=0;" parent="1" source="myqi20wE7shxtgtQEC9K-239" target="myqi20wE7shxtgtQEC9K-240" edge="1">
          <mxGeometry width="100" height="100" relative="1" as="geometry">
            <mxPoint x="210" y="230" as="sourcePoint" />
            <mxPoint x="110" y="300" as="targetPoint" />
          </mxGeometry>
        </mxCell>
        <mxCell id="myqi20wE7shxtgtQEC9K-256" value="" style="edgeStyle=elbowEdgeStyle;elbow=vertical;rounded=0;fontColor=#000000;endArrow=none;endFill=0;strokeWidth=8;strokeColor=#23445D;entryX=0.5;entryY=0;entryDx=0;entryDy=0;exitX=0.5;exitY=1;exitDx=0;exitDy=0;" parent="1" source="2" target="myqi20wE7shxtgtQEC9K-239" edge="1">
          <mxGeometry width="100" height="100" relative="1" as="geometry">
            <mxPoint x="970" y="110" as="sourcePoint" />
            <mxPoint x="230" y="170" as="targetPoint" />
          </mxGeometry>
        </mxCell>
        <mxCell id="myqi20wE7shxtgtQEC9K-257" value="Node.js&lt;br&gt;environment&lt;br&gt;setup" style="whiteSpace=wrap;html=1;fillColor=#999999;strokeColor=none;fontColor=#FFFFFF;rounded=1;shadow=1;fontStyle=0;" parent="1" vertex="1">
          <mxGeometry x="1429.9999999999998" y="400.0000000000002" width="120" height="60" as="geometry" />
        </mxCell>
        <mxCell id="myqi20wE7shxtgtQEC9K-259" value="" style="edgeStyle=elbowEdgeStyle;elbow=horizontal;rounded=0;fontColor=#000000;endArrow=none;endFill=0;strokeWidth=8;strokeColor=#23445D;entryX=0;entryY=0.5;entryDx=0;entryDy=0;" parent="1" source="157" target="myqi20wE7shxtgtQEC9K-257" edge="1">
          <mxGeometry width="100" height="100" relative="1" as="geometry">
            <mxPoint x="1270" y="510" as="sourcePoint" />
            <mxPoint x="890" y="600" as="targetPoint" />
            <Array as="points">
              <mxPoint x="1260" y="430" />
            </Array>
          </mxGeometry>
        </mxCell>
        <mxCell id="myqi20wE7shxtgtQEC9K-260" value="Javascript" style="whiteSpace=wrap;html=1;fillColor=#999999;strokeColor=none;fontColor=#FFFFFF;rounded=1;shadow=1;fontStyle=0;" parent="1" vertex="1">
          <mxGeometry x="1429.9999999999998" y="480.0000000000002" width="120" height="60" as="geometry" />
        </mxCell>
        <mxCell id="myqi20wE7shxtgtQEC9K-261" value="MQTT over node.js" style="whiteSpace=wrap;html=1;fillColor=#999999;strokeColor=none;fontColor=#FFFFFF;rounded=1;shadow=1;fontStyle=0;" parent="1" vertex="1">
          <mxGeometry x="1429.9999999999998" y="560.0000000000002" width="120" height="60" as="geometry" />
        </mxCell>
        <mxCell id="myqi20wE7shxtgtQEC9K-262" value="Socket server" style="whiteSpace=wrap;html=1;fillColor=#999999;strokeColor=none;fontColor=#FFFFFF;rounded=1;shadow=1;fontStyle=0;" parent="1" vertex="1">
          <mxGeometry x="1693.9999999999998" y="640.0000000000002" width="120" height="60" as="geometry" />
        </mxCell>
        <mxCell id="myqi20wE7shxtgtQEC9K-263" value="Data analyzer" style="whiteSpace=wrap;html=1;fillColor=#999999;strokeColor=none;fontColor=#FFFFFF;rounded=1;shadow=1;fontStyle=0;" parent="1" vertex="1">
          <mxGeometry x="1693.9999999999998" y="1130.0000000000002" width="120" height="60" as="geometry" />
        </mxCell>
        <mxCell id="myqi20wE7shxtgtQEC9K-264" value="MQTT client" style="whiteSpace=wrap;html=1;fillColor=#999999;strokeColor=none;fontColor=#FFFFFF;rounded=1;shadow=1;fontStyle=0;" parent="1" vertex="1">
          <mxGeometry x="1693.9999999999998" y="1370.0000000000002" width="120" height="60" as="geometry" />
        </mxCell>
        <mxCell id="myqi20wE7shxtgtQEC9K-265" value="" style="edgeStyle=elbowEdgeStyle;elbow=horizontal;rounded=0;fontColor=#000000;endArrow=none;endFill=0;strokeWidth=8;strokeColor=#23445D;entryX=0;entryY=0.5;entryDx=0;entryDy=0;" parent="1" source="157" target="myqi20wE7shxtgtQEC9K-260" edge="1">
          <mxGeometry width="100" height="100" relative="1" as="geometry">
            <mxPoint x="1220" y="570" as="sourcePoint" />
            <mxPoint x="1380" y="690" as="targetPoint" />
            <Array as="points">
              <mxPoint x="1360" y="480" />
            </Array>
          </mxGeometry>
        </mxCell>
        <mxCell id="myqi20wE7shxtgtQEC9K-266" value="" style="edgeStyle=elbowEdgeStyle;elbow=horizontal;rounded=0;fontColor=#000000;endArrow=none;endFill=0;strokeWidth=8;strokeColor=#23445D;entryX=0;entryY=0.5;entryDx=0;entryDy=0;" parent="1" source="157" target="myqi20wE7shxtgtQEC9K-261" edge="1">
          <mxGeometry width="100" height="100" relative="1" as="geometry">
            <mxPoint x="1210" y="530" as="sourcePoint" />
            <mxPoint x="1420" y="520" as="targetPoint" />
            <Array as="points">
              <mxPoint x="1360" y="520" />
            </Array>
          </mxGeometry>
        </mxCell>
        <mxCell id="myqi20wE7shxtgtQEC9K-267" value="" style="edgeStyle=elbowEdgeStyle;elbow=horizontal;rounded=0;fontColor=#000000;endArrow=none;endFill=0;strokeWidth=8;strokeColor=#23445D;exitX=1;exitY=0.5;exitDx=0;exitDy=0;entryX=0;entryY=0.5;entryDx=0;entryDy=0;" parent="1" source="158" target="myqi20wE7shxtgtQEC9K-262" edge="1">
          <mxGeometry width="100" height="100" relative="1" as="geometry">
            <mxPoint x="1310" y="600" as="sourcePoint" />
            <mxPoint x="1720" y="760" as="targetPoint" />
            <Array as="points" />
          </mxGeometry>
        </mxCell>
        <mxCell id="myqi20wE7shxtgtQEC9K-268" value="Time service" style="whiteSpace=wrap;html=1;fillColor=#999999;strokeColor=none;fontColor=#FFFFFF;rounded=1;shadow=1;fontStyle=0;" parent="1" vertex="1">
          <mxGeometry x="1693.9999999999998" y="1850.0000000000002" width="120" height="60" as="geometry" />
        </mxCell>
        <mxCell id="myqi20wE7shxtgtQEC9K-269" value="Reader setting" style="whiteSpace=wrap;html=1;fillColor=#999999;strokeColor=none;fontColor=#FFFFFF;rounded=1;shadow=1;fontStyle=0;" parent="1" vertex="1">
          <mxGeometry x="1693.9999999999998" y="2250" width="120" height="60" as="geometry" />
        </mxCell>
        <mxCell id="myqi20wE7shxtgtQEC9K-270" value="" style="edgeStyle=elbowEdgeStyle;elbow=horizontal;rounded=0;fontColor=#000000;endArrow=none;endFill=0;strokeWidth=8;strokeColor=#23445D;exitX=1;exitY=0.5;exitDx=0;exitDy=0;entryX=0;entryY=0.5;entryDx=0;entryDy=0;" parent="1" source="158" target="myqi20wE7shxtgtQEC9K-263" edge="1">
          <mxGeometry width="100" height="100" relative="1" as="geometry">
            <mxPoint x="1310" y="680" as="sourcePoint" />
            <mxPoint x="1510" y="680" as="targetPoint" />
            <Array as="points">
              <mxPoint x="1670" y="940" />
            </Array>
          </mxGeometry>
        </mxCell>
        <mxCell id="myqi20wE7shxtgtQEC9K-271" value="" style="edgeStyle=elbowEdgeStyle;elbow=horizontal;rounded=0;fontColor=#000000;endArrow=none;endFill=0;strokeWidth=8;strokeColor=#23445D;exitX=1;exitY=0.5;exitDx=0;exitDy=0;entryX=0;entryY=0.5;entryDx=0;entryDy=0;" parent="1" source="158" target="myqi20wE7shxtgtQEC9K-264" edge="1">
          <mxGeometry width="100" height="100" relative="1" as="geometry">
            <mxPoint x="1310" y="680" as="sourcePoint" />
            <mxPoint x="1510" y="760" as="targetPoint" />
            <Array as="points">
              <mxPoint x="1670" y="1040" />
            </Array>
          </mxGeometry>
        </mxCell>
        <mxCell id="myqi20wE7shxtgtQEC9K-272" value="" style="edgeStyle=elbowEdgeStyle;elbow=horizontal;rounded=0;fontColor=#000000;endArrow=none;endFill=0;strokeWidth=8;strokeColor=#23445D;exitX=1;exitY=0.5;exitDx=0;exitDy=0;entryX=0;entryY=0.5;entryDx=0;entryDy=0;" parent="1" source="158" target="myqi20wE7shxtgtQEC9K-268" edge="1">
          <mxGeometry width="100" height="100" relative="1" as="geometry">
            <mxPoint x="1310" y="680" as="sourcePoint" />
            <mxPoint x="1510" y="840" as="targetPoint" />
            <Array as="points">
              <mxPoint x="1670" y="1250" />
            </Array>
          </mxGeometry>
        </mxCell>
        <mxCell id="myqi20wE7shxtgtQEC9K-273" value="" style="edgeStyle=elbowEdgeStyle;elbow=horizontal;rounded=0;fontColor=#000000;endArrow=none;endFill=0;strokeWidth=8;strokeColor=#23445D;exitX=1;exitY=0.5;exitDx=0;exitDy=0;entryX=0;entryY=0.5;entryDx=0;entryDy=0;" parent="1" source="158" target="myqi20wE7shxtgtQEC9K-269" edge="1">
          <mxGeometry width="100" height="100" relative="1" as="geometry">
            <mxPoint x="1490.0000000000005" y="670" as="sourcePoint" />
            <mxPoint x="1670" y="2470" as="targetPoint" />
            <Array as="points">
              <mxPoint x="1670" y="830" />
            </Array>
          </mxGeometry>
        </mxCell>
        <mxCell id="myqi20wE7shxtgtQEC9K-274" value="TCP socket server" style="whiteSpace=wrap;html=1;fillColor=#999999;strokeColor=none;fontColor=#FFFFFF;rounded=1;shadow=1;fontStyle=0;" parent="1" vertex="1">
          <mxGeometry x="1899.9999999999998" y="480.0000000000002" width="120" height="60" as="geometry" />
        </mxCell>
        <mxCell id="myqi20wE7shxtgtQEC9K-276" value="" style="edgeStyle=elbowEdgeStyle;elbow=horizontal;rounded=0;fontColor=#000000;endArrow=none;endFill=0;strokeWidth=8;strokeColor=#23445D;entryX=0;entryY=0.5;entryDx=0;entryDy=0;" parent="1" target="myqi20wE7shxtgtQEC9K-274" edge="1">
          <mxGeometry width="100" height="100" relative="1" as="geometry">
            <mxPoint x="1850" y="670" as="sourcePoint" />
            <mxPoint x="1910" y="670" as="targetPoint" />
            <Array as="points">
              <mxPoint x="1850" y="600" />
            </Array>
          </mxGeometry>
        </mxCell>
        <mxCell id="myqi20wE7shxtgtQEC9K-277" value="Socket server implementation" style="whiteSpace=wrap;html=1;fillColor=#999999;strokeColor=none;fontColor=#FFFFFF;rounded=1;shadow=1;fontStyle=0;" parent="1" vertex="1">
          <mxGeometry x="1899.9999999999998" y="560.0000000000002" width="120" height="60" as="geometry" />
        </mxCell>
        <mxCell id="myqi20wE7shxtgtQEC9K-278" value="Storage" style="whiteSpace=wrap;html=1;fillColor=#999999;strokeColor=none;fontColor=#FFFFFF;rounded=1;shadow=1;fontStyle=0;" parent="1" vertex="1">
          <mxGeometry x="1899.9999999999998" y="640.0000000000002" width="120" height="60" as="geometry" />
        </mxCell>
        <mxCell id="myqi20wE7shxtgtQEC9K-279" value="" style="edgeStyle=elbowEdgeStyle;elbow=horizontal;rounded=0;fontColor=#000000;endArrow=none;endFill=0;strokeWidth=8;strokeColor=#23445D;exitX=1;exitY=0.5;exitDx=0;exitDy=0;" parent="1" source="myqi20wE7shxtgtQEC9K-262" edge="1">
          <mxGeometry width="100" height="100" relative="1" as="geometry">
            <mxPoint x="1660" y="680" as="sourcePoint" />
            <mxPoint x="1900" y="590" as="targetPoint" />
            <Array as="points">
              <mxPoint x="1850" y="630" />
            </Array>
          </mxGeometry>
        </mxCell>
        <mxCell id="myqi20wE7shxtgtQEC9K-280" value="" style="edgeStyle=elbowEdgeStyle;elbow=horizontal;rounded=0;fontColor=#000000;endArrow=none;endFill=0;strokeWidth=8;strokeColor=#23445D;exitX=1;exitY=0.5;exitDx=0;exitDy=0;" parent="1" source="myqi20wE7shxtgtQEC9K-262" target="myqi20wE7shxtgtQEC9K-278" edge="1">
          <mxGeometry width="100" height="100" relative="1" as="geometry">
            <mxPoint x="1660" y="680" as="sourcePoint" />
            <mxPoint x="1720" y="760" as="targetPoint" />
            <Array as="points">
              <mxPoint x="1840" y="670" />
            </Array>
          </mxGeometry>
        </mxCell>
        <mxCell id="myqi20wE7shxtgtQEC9K-281" value="Get tag information" style="whiteSpace=wrap;html=1;fillColor=#999999;strokeColor=none;fontColor=#FFFFFF;rounded=1;shadow=1;fontStyle=0;" parent="1" vertex="1">
          <mxGeometry x="2090" y="400.0000000000002" width="120" height="60" as="geometry" />
        </mxCell>
        <mxCell id="myqi20wE7shxtgtQEC9K-282" value="Get reader status&lt;br&gt;(from reader -&amp;gt; status api)" style="whiteSpace=wrap;html=1;fillColor=#999999;strokeColor=none;fontColor=#FFFFFF;rounded=1;shadow=1;fontStyle=0;" parent="1" vertex="1">
          <mxGeometry x="2090" y="480.0000000000002" width="120" height="60" as="geometry" />
        </mxCell>
        <mxCell id="myqi20wE7shxtgtQEC9K-284" value="" style="edgeStyle=elbowEdgeStyle;elbow=horizontal;rounded=0;fontColor=#000000;endArrow=none;endFill=0;strokeWidth=8;strokeColor=#23445D;entryX=0;entryY=0.5;entryDx=0;entryDy=0;" parent="1" target="myqi20wE7shxtgtQEC9K-281" edge="1">
          <mxGeometry width="100" height="100" relative="1" as="geometry">
            <mxPoint x="2020" y="510" as="sourcePoint" />
            <mxPoint x="1920" y="440" as="targetPoint" />
            <Array as="points" />
          </mxGeometry>
        </mxCell>
        <mxCell id="myqi20wE7shxtgtQEC9K-285" value="" style="edgeStyle=elbowEdgeStyle;elbow=horizontal;rounded=0;fontColor=#000000;endArrow=none;endFill=0;strokeWidth=8;strokeColor=#23445D;entryX=0;entryY=0.5;entryDx=0;entryDy=0;exitX=1;exitY=0.5;exitDx=0;exitDy=0;" parent="1" source="myqi20wE7shxtgtQEC9K-274" target="myqi20wE7shxtgtQEC9K-282" edge="1">
          <mxGeometry width="100" height="100" relative="1" as="geometry">
            <mxPoint x="2030" y="430.0000000000002" as="sourcePoint" />
            <mxPoint x="2100" y="440" as="targetPoint" />
            <Array as="points" />
          </mxGeometry>
        </mxCell>
        <mxCell id="myqi20wE7shxtgtQEC9K-286" value="Design packet tokenizer" style="whiteSpace=wrap;html=1;fillColor=#999999;strokeColor=none;fontColor=#FFFFFF;rounded=1;shadow=1;fontStyle=0;" parent="1" vertex="1">
          <mxGeometry x="2090" y="560.0000000000002" width="120" height="60" as="geometry" />
        </mxCell>
        <mxCell id="myqi20wE7shxtgtQEC9K-287" value="Design packet analyzer" style="whiteSpace=wrap;html=1;fillColor=#999999;strokeColor=none;fontColor=#FFFFFF;rounded=1;shadow=1;fontStyle=0;" parent="1" vertex="1">
          <mxGeometry x="2090" y="640.0000000000002" width="120" height="60" as="geometry" />
        </mxCell>
        <mxCell id="myqi20wE7shxtgtQEC9K-288" value="" style="edgeStyle=elbowEdgeStyle;elbow=horizontal;rounded=0;fontColor=#000000;endArrow=none;endFill=0;strokeWidth=8;strokeColor=#23445D;entryX=0;entryY=0.5;entryDx=0;entryDy=0;exitX=1;exitY=0.5;exitDx=0;exitDy=0;" parent="1" source="myqi20wE7shxtgtQEC9K-277" target="myqi20wE7shxtgtQEC9K-286" edge="1">
          <mxGeometry width="100" height="100" relative="1" as="geometry">
            <mxPoint x="2030" y="520" as="sourcePoint" />
            <mxPoint x="2100" y="520" as="targetPoint" />
            <Array as="points" />
          </mxGeometry>
        </mxCell>
        <mxCell id="myqi20wE7shxtgtQEC9K-289" value="" style="edgeStyle=elbowEdgeStyle;elbow=horizontal;rounded=0;fontColor=#000000;endArrow=none;endFill=0;strokeWidth=8;strokeColor=#23445D;entryX=0;entryY=0.5;entryDx=0;entryDy=0;exitX=1;exitY=0.5;exitDx=0;exitDy=0;" parent="1" source="myqi20wE7shxtgtQEC9K-277" target="myqi20wE7shxtgtQEC9K-287" edge="1">
          <mxGeometry width="100" height="100" relative="1" as="geometry">
            <mxPoint x="2030" y="600" as="sourcePoint" />
            <mxPoint x="2100" y="600" as="targetPoint" />
            <Array as="points" />
          </mxGeometry>
        </mxCell>
        <mxCell id="myqi20wE7shxtgtQEC9K-290" value="Insert raw data to database&lt;br&gt;(to data manage -&amp;gt; write api)" style="whiteSpace=wrap;html=1;fillColor=#999999;strokeColor=none;fontColor=#FFFFFF;rounded=1;shadow=1;fontStyle=0;" parent="1" vertex="1">
          <mxGeometry x="2090" y="720.0000000000002" width="120" height="60" as="geometry" />
        </mxCell>
        <mxCell id="myqi20wE7shxtgtQEC9K-291" value="" style="edgeStyle=elbowEdgeStyle;elbow=horizontal;rounded=0;fontColor=#000000;endArrow=none;endFill=0;strokeWidth=8;strokeColor=#23445D;entryX=0;entryY=0.5;entryDx=0;entryDy=0;exitX=0.5;exitY=1;exitDx=0;exitDy=0;" parent="1" source="myqi20wE7shxtgtQEC9K-278" target="myqi20wE7shxtgtQEC9K-290" edge="1">
          <mxGeometry width="100" height="100" relative="1" as="geometry">
            <mxPoint x="2030" y="600" as="sourcePoint" />
            <mxPoint x="2100" y="680" as="targetPoint" />
            <Array as="points">
              <mxPoint x="1960" y="720" />
            </Array>
          </mxGeometry>
        </mxCell>
        <mxCell id="myqi20wE7shxtgtQEC9K-292" value="Insert reader status to database&lt;br&gt;(to data manage-&amp;gt; write api)" style="whiteSpace=wrap;html=1;fillColor=#999999;strokeColor=none;fontColor=#FFFFFF;rounded=1;shadow=1;fontStyle=0;" parent="1" vertex="1">
          <mxGeometry x="2090" y="800.0000000000002" width="120" height="60" as="geometry" />
        </mxCell>
        <mxCell id="myqi20wE7shxtgtQEC9K-293" value="" style="edgeStyle=elbowEdgeStyle;elbow=horizontal;rounded=0;fontColor=#000000;endArrow=none;endFill=0;strokeWidth=8;strokeColor=#23445D;entryX=0;entryY=0.5;entryDx=0;entryDy=0;exitX=0.5;exitY=1;exitDx=0;exitDy=0;" parent="1" source="myqi20wE7shxtgtQEC9K-278" target="myqi20wE7shxtgtQEC9K-292" edge="1">
          <mxGeometry width="100" height="100" relative="1" as="geometry">
            <mxPoint x="1970" y="710" as="sourcePoint" />
            <mxPoint x="2100" y="760" as="targetPoint" />
            <Array as="points">
              <mxPoint x="1960" y="730" />
            </Array>
          </mxGeometry>
        </mxCell>
        <mxCell id="myqi20wE7shxtgtQEC9K-294" value="Insert MQTT data to database&lt;br&gt;(to data manage-&amp;gt; write api)" style="whiteSpace=wrap;html=1;fillColor=#999999;strokeColor=none;fontColor=#FFFFFF;rounded=1;shadow=1;fontStyle=0;" parent="1" vertex="1">
          <mxGeometry x="2090" y="880.0000000000002" width="120" height="60" as="geometry" />
        </mxCell>
        <mxCell id="myqi20wE7shxtgtQEC9K-295" value="" style="edgeStyle=elbowEdgeStyle;elbow=horizontal;rounded=0;fontColor=#000000;endArrow=none;endFill=0;strokeWidth=8;strokeColor=#23445D;entryX=0;entryY=0.5;entryDx=0;entryDy=0;exitX=0.5;exitY=1;exitDx=0;exitDy=0;" parent="1" source="myqi20wE7shxtgtQEC9K-278" target="myqi20wE7shxtgtQEC9K-294" edge="1">
          <mxGeometry width="100" height="100" relative="1" as="geometry">
            <mxPoint x="1970" y="710" as="sourcePoint" />
            <mxPoint x="2100" y="840" as="targetPoint" />
            <Array as="points">
              <mxPoint x="1960" y="800" />
            </Array>
          </mxGeometry>
        </mxCell>
        <mxCell id="myqi20wE7shxtgtQEC9K-296" value="Analysis and Processing" style="whiteSpace=wrap;html=1;fillColor=#999999;strokeColor=none;fontColor=#FFFFFF;rounded=1;shadow=1;fontStyle=0;" parent="1" vertex="1">
          <mxGeometry x="1899.9999999999998" y="1130.0000000000002" width="120" height="60" as="geometry" />
        </mxCell>
        <mxCell id="myqi20wE7shxtgtQEC9K-299" value="設計軸(面)偵測" style="whiteSpace=wrap;html=1;fillColor=#999999;strokeColor=none;fontColor=#FFFFFF;rounded=1;shadow=1;fontStyle=0;" parent="1" vertex="1">
          <mxGeometry x="2270" y="970.0000000000002" width="120" height="60" as="geometry" />
        </mxCell>
        <mxCell id="myqi20wE7shxtgtQEC9K-300" value="設計準備區偵測" style="whiteSpace=wrap;html=1;fillColor=#999999;strokeColor=none;fontColor=#FFFFFF;rounded=1;shadow=1;fontStyle=0;" parent="1" vertex="1">
          <mxGeometry x="2270" y="1049.0000000000002" width="120" height="60" as="geometry" />
        </mxCell>
        <mxCell id="myqi20wE7shxtgtQEC9K-301" value="分析RSSI/Count/時間" style="whiteSpace=wrap;html=1;fillColor=#999999;strokeColor=none;fontColor=#FFFFFF;rounded=1;shadow=1;fontStyle=0;" parent="1" vertex="1">
          <mxGeometry x="2270" y="1130.0000000000002" width="120" height="60" as="geometry" />
        </mxCell>
        <mxCell id="myqi20wE7shxtgtQEC9K-302" value="" style="edgeStyle=elbowEdgeStyle;elbow=horizontal;rounded=0;fontColor=#000000;endArrow=none;endFill=0;strokeWidth=8;strokeColor=#23445D;" parent="1" edge="1">
          <mxGeometry width="100" height="100" relative="1" as="geometry">
            <mxPoint x="1850" y="1159" as="sourcePoint" />
            <mxPoint x="1900" y="1159.38" as="targetPoint" />
            <Array as="points">
              <mxPoint x="1840" y="1159.38" />
            </Array>
          </mxGeometry>
        </mxCell>
        <mxCell id="myqi20wE7shxtgtQEC9K-304" value="" style="edgeStyle=elbowEdgeStyle;elbow=horizontal;rounded=0;fontColor=#000000;endArrow=none;endFill=0;strokeWidth=8;strokeColor=#23445D;" parent="1" source="myqi20wE7shxtgtQEC9K-296" target="myqi20wE7shxtgtQEC9K-301" edge="1">
          <mxGeometry width="100" height="100" relative="1" as="geometry">
            <mxPoint x="2020" y="1159.38" as="sourcePoint" />
            <mxPoint x="2090" y="1159.38" as="targetPoint" />
            <Array as="points" />
          </mxGeometry>
        </mxCell>
        <mxCell id="myqi20wE7shxtgtQEC9K-305" value="" style="edgeStyle=elbowEdgeStyle;elbow=horizontal;rounded=0;fontColor=#000000;endArrow=none;endFill=0;strokeWidth=8;strokeColor=#23445D;entryX=0;entryY=0.5;entryDx=0;entryDy=0;" parent="1" source="myqi20wE7shxtgtQEC9K-296" target="myqi20wE7shxtgtQEC9K-300" edge="1">
          <mxGeometry width="100" height="100" relative="1" as="geometry">
            <mxPoint x="2020" y="1160.0000000000002" as="sourcePoint" />
            <mxPoint x="2100" y="1169.38" as="targetPoint" />
            <Array as="points">
              <mxPoint x="2240" y="1120" />
            </Array>
          </mxGeometry>
        </mxCell>
        <mxCell id="myqi20wE7shxtgtQEC9K-306" value="" style="edgeStyle=elbowEdgeStyle;elbow=horizontal;rounded=0;fontColor=#000000;endArrow=none;endFill=0;strokeWidth=8;strokeColor=#23445D;entryX=0;entryY=0.5;entryDx=0;entryDy=0;" parent="1" source="myqi20wE7shxtgtQEC9K-296" target="myqi20wE7shxtgtQEC9K-299" edge="1">
          <mxGeometry width="100" height="100" relative="1" as="geometry">
            <mxPoint x="2020" y="1160.0000000000002" as="sourcePoint" />
            <mxPoint x="2110" y="1179.38" as="targetPoint" />
            <Array as="points">
              <mxPoint x="2240" y="1090" />
            </Array>
          </mxGeometry>
        </mxCell>
        <mxCell id="myqi20wE7shxtgtQEC9K-307" value="Storage" style="whiteSpace=wrap;html=1;fillColor=#999999;strokeColor=none;fontColor=#FFFFFF;rounded=1;shadow=1;fontStyle=0;" parent="1" vertex="1">
          <mxGeometry x="1900" y="1210.0000000000002" width="120" height="60" as="geometry" />
        </mxCell>
        <mxCell id="myqi20wE7shxtgtQEC9K-308" value="Insert 軸/架裝資料 to database&lt;br&gt;(to data manager -&amp;gt; write api)" style="whiteSpace=wrap;html=1;fillColor=#999999;strokeColor=none;fontColor=#FFFFFF;rounded=1;shadow=1;fontStyle=0;" parent="1" vertex="1">
          <mxGeometry x="2090" y="1210.0000000000002" width="120" height="60" as="geometry" />
        </mxCell>
        <mxCell id="myqi20wE7shxtgtQEC9K-309" value="Insert 準備區資料 to database&lt;br&gt;(to data manager -&amp;gt; write api)" style="whiteSpace=wrap;html=1;fillColor=#999999;strokeColor=none;fontColor=#FFFFFF;rounded=1;shadow=1;fontStyle=0;" parent="1" vertex="1">
          <mxGeometry x="2090" y="1290.0000000000002" width="120" height="60" as="geometry" />
        </mxCell>
        <mxCell id="myqi20wE7shxtgtQEC9K-310" value="" style="edgeStyle=elbowEdgeStyle;elbow=horizontal;rounded=0;fontColor=#000000;endArrow=none;endFill=0;strokeWidth=8;strokeColor=#23445D;entryX=0;entryY=0.5;entryDx=0;entryDy=0;exitX=1;exitY=0.5;exitDx=0;exitDy=0;" parent="1" edge="1">
          <mxGeometry width="100" height="100" relative="1" as="geometry">
            <mxPoint x="2020" y="1239.5800000000002" as="sourcePoint" />
            <mxPoint x="2090" y="1239.5800000000002" as="targetPoint" />
            <Array as="points" />
          </mxGeometry>
        </mxCell>
        <mxCell id="myqi20wE7shxtgtQEC9K-311" value="" style="edgeStyle=elbowEdgeStyle;elbow=horizontal;rounded=0;fontColor=#000000;endArrow=none;endFill=0;strokeWidth=8;strokeColor=#23445D;entryX=0;entryY=0.5;entryDx=0;entryDy=0;exitX=1;exitY=0.5;exitDx=0;exitDy=0;" parent="1" source="myqi20wE7shxtgtQEC9K-307" target="myqi20wE7shxtgtQEC9K-309" edge="1">
          <mxGeometry width="100" height="100" relative="1" as="geometry">
            <mxPoint x="2040" y="1179.38" as="sourcePoint" />
            <mxPoint x="2110" y="1179.38" as="targetPoint" />
            <Array as="points" />
          </mxGeometry>
        </mxCell>
        <mxCell id="myqi20wE7shxtgtQEC9K-312" value="" style="edgeStyle=elbowEdgeStyle;elbow=horizontal;rounded=0;fontColor=#000000;endArrow=none;endFill=0;strokeWidth=8;strokeColor=#23445D;exitX=1;exitY=0.5;exitDx=0;exitDy=0;entryX=0;entryY=0.5;entryDx=0;entryDy=0;" parent="1" source="myqi20wE7shxtgtQEC9K-263" target="myqi20wE7shxtgtQEC9K-307" edge="1">
          <mxGeometry width="100" height="100" relative="1" as="geometry">
            <mxPoint x="1660" y="1169.38" as="sourcePoint" />
            <mxPoint x="1910" y="1169.38" as="targetPoint" />
            <Array as="points">
              <mxPoint x="1850" y="1169.38" />
            </Array>
          </mxGeometry>
        </mxCell>
        <mxCell id="myqi20wE7shxtgtQEC9K-314" value="Publish data to MQTT broker" style="whiteSpace=wrap;html=1;fillColor=#999999;strokeColor=none;fontColor=#FFFFFF;rounded=1;shadow=1;fontStyle=0;" parent="1" vertex="1">
          <mxGeometry x="1900" y="1370.0000000000002" width="120" height="60" as="geometry" />
        </mxCell>
        <mxCell id="myqi20wE7shxtgtQEC9K-315" value="Subscribe" style="whiteSpace=wrap;html=1;fillColor=#999999;strokeColor=none;fontColor=#FFFFFF;rounded=1;shadow=1;fontStyle=0;" parent="1" vertex="1">
          <mxGeometry x="1900" y="1450.0000000000002" width="120" height="60" as="geometry" />
        </mxCell>
        <mxCell id="myqi20wE7shxtgtQEC9K-316" value="Storage" style="whiteSpace=wrap;html=1;fillColor=#999999;strokeColor=none;fontColor=#FFFFFF;rounded=1;shadow=1;fontStyle=0;" parent="1" vertex="1">
          <mxGeometry x="1900" y="1530.0000000000002" width="120" height="60" as="geometry" />
        </mxCell>
        <mxCell id="myqi20wE7shxtgtQEC9K-317" value="" style="edgeStyle=elbowEdgeStyle;elbow=horizontal;rounded=0;fontColor=#000000;endArrow=none;endFill=0;strokeWidth=8;strokeColor=#23445D;" parent="1" edge="1">
          <mxGeometry width="100" height="100" relative="1" as="geometry">
            <mxPoint x="1850" y="1400" as="sourcePoint" />
            <mxPoint x="1900" y="1399.5" as="targetPoint" />
            <Array as="points">
              <mxPoint x="1840" y="1399.5" />
            </Array>
          </mxGeometry>
        </mxCell>
        <mxCell id="myqi20wE7shxtgtQEC9K-319" value="Subscribe Topic" style="whiteSpace=wrap;html=1;fillColor=#999999;strokeColor=none;fontColor=#FFFFFF;rounded=1;shadow=1;fontStyle=0;" parent="1" vertex="1">
          <mxGeometry x="2090" y="1370.0000000000002" width="120" height="60" as="geometry" />
        </mxCell>
        <mxCell id="myqi20wE7shxtgtQEC9K-320" value="Handle received topic/data&lt;br&gt;(to ui -&amp;gt; machine status api)" style="whiteSpace=wrap;html=1;fillColor=#999999;strokeColor=none;fontColor=#FFFFFF;rounded=1;shadow=1;fontStyle=0;" parent="1" vertex="1">
          <mxGeometry x="2090" y="1450.0000000000002" width="120" height="60" as="geometry" />
        </mxCell>
        <mxCell id="myqi20wE7shxtgtQEC9K-321" value="" style="edgeStyle=elbowEdgeStyle;elbow=horizontal;rounded=0;fontColor=#000000;endArrow=none;endFill=0;strokeWidth=8;strokeColor=#23445D;entryX=0;entryY=0.5;entryDx=0;entryDy=0;exitX=1;exitY=0.5;exitDx=0;exitDy=0;" parent="1" edge="1">
          <mxGeometry width="100" height="100" relative="1" as="geometry">
            <mxPoint x="2020" y="1479.71" as="sourcePoint" />
            <mxPoint x="2090" y="1479.71" as="targetPoint" />
            <Array as="points" />
          </mxGeometry>
        </mxCell>
        <mxCell id="myqi20wE7shxtgtQEC9K-322" value="" style="edgeStyle=elbowEdgeStyle;elbow=horizontal;rounded=0;fontColor=#000000;endArrow=none;endFill=0;strokeWidth=8;strokeColor=#23445D;entryX=0;entryY=0.5;entryDx=0;entryDy=0;exitX=1;exitY=0.5;exitDx=0;exitDy=0;" parent="1" target="myqi20wE7shxtgtQEC9K-319" edge="1">
          <mxGeometry width="100" height="100" relative="1" as="geometry">
            <mxPoint x="2020" y="1479.71" as="sourcePoint" />
            <mxPoint x="2090" y="1479.71" as="targetPoint" />
            <Array as="points" />
          </mxGeometry>
        </mxCell>
        <mxCell id="myqi20wE7shxtgtQEC9K-323" value="" style="edgeStyle=elbowEdgeStyle;elbow=horizontal;rounded=0;fontColor=#000000;endArrow=none;endFill=0;strokeWidth=8;strokeColor=#23445D;exitX=1;exitY=0.5;exitDx=0;exitDy=0;entryX=0;entryY=0.5;entryDx=0;entryDy=0;" parent="1" source="myqi20wE7shxtgtQEC9K-264" target="myqi20wE7shxtgtQEC9K-315" edge="1">
          <mxGeometry width="100" height="100" relative="1" as="geometry">
            <mxPoint x="1660" y="1409.5" as="sourcePoint" />
            <mxPoint x="1910" y="1409.5" as="targetPoint" />
            <Array as="points">
              <mxPoint x="1850" y="1409.5" />
            </Array>
          </mxGeometry>
        </mxCell>
        <mxCell id="myqi20wE7shxtgtQEC9K-324" value="" style="edgeStyle=elbowEdgeStyle;elbow=horizontal;rounded=0;fontColor=#000000;endArrow=none;endFill=0;strokeWidth=8;strokeColor=#23445D;exitX=1;exitY=0.5;exitDx=0;exitDy=0;entryX=0;entryY=0.5;entryDx=0;entryDy=0;" parent="1" source="myqi20wE7shxtgtQEC9K-264" target="myqi20wE7shxtgtQEC9K-316" edge="1">
          <mxGeometry width="100" height="100" relative="1" as="geometry">
            <mxPoint x="1660" y="1410" as="sourcePoint" />
            <mxPoint x="1910" y="1490" as="targetPoint" />
            <Array as="points">
              <mxPoint x="1850" y="1480" />
            </Array>
          </mxGeometry>
        </mxCell>
        <mxCell id="myqi20wE7shxtgtQEC9K-325" value="Insert published topic/data to database&lt;br&gt;(to data manager -&amp;gt; write api)" style="whiteSpace=wrap;html=1;fillColor=#999999;strokeColor=none;fontColor=#FFFFFF;rounded=1;shadow=1;fontStyle=0;" parent="1" vertex="1">
          <mxGeometry x="2090" y="1530" width="160" height="60" as="geometry" />
        </mxCell>
        <mxCell id="myqi20wE7shxtgtQEC9K-326" value="" style="edgeStyle=elbowEdgeStyle;elbow=horizontal;rounded=0;fontColor=#000000;endArrow=none;endFill=0;strokeWidth=8;strokeColor=#23445D;entryX=0;entryY=0.5;entryDx=0;entryDy=0;exitX=1;exitY=0.5;exitDx=0;exitDy=0;" parent="1" edge="1">
          <mxGeometry width="100" height="100" relative="1" as="geometry">
            <mxPoint x="2020" y="1559.71" as="sourcePoint" />
            <mxPoint x="2090" y="1559.71" as="targetPoint" />
            <Array as="points" />
          </mxGeometry>
        </mxCell>
        <mxCell id="myqi20wE7shxtgtQEC9K-327" value="Insert subscribed topic/data to database&lt;br&gt;(to data manager -&amp;gt; write api)" style="whiteSpace=wrap;html=1;fillColor=#999999;strokeColor=none;fontColor=#FFFFFF;rounded=1;shadow=1;fontStyle=0;" parent="1" vertex="1">
          <mxGeometry x="2090" y="1610" width="160" height="60" as="geometry" />
        </mxCell>
        <mxCell id="myqi20wE7shxtgtQEC9K-328" value="" style="edgeStyle=elbowEdgeStyle;elbow=horizontal;rounded=0;fontColor=#000000;endArrow=none;endFill=0;strokeWidth=8;strokeColor=#23445D;entryX=0;entryY=0.5;entryDx=0;entryDy=0;exitX=1;exitY=0.5;exitDx=0;exitDy=0;" parent="1" source="myqi20wE7shxtgtQEC9K-316" target="myqi20wE7shxtgtQEC9K-327" edge="1">
          <mxGeometry width="100" height="100" relative="1" as="geometry">
            <mxPoint x="2030" y="1569.71" as="sourcePoint" />
            <mxPoint x="2100" y="1569.71" as="targetPoint" />
            <Array as="points" />
          </mxGeometry>
        </mxCell>
        <mxCell id="myqi20wE7shxtgtQEC9K-329" value="Insert HMI status to database&lt;br&gt;(to data manager -&amp;gt; write api)" style="whiteSpace=wrap;html=1;fillColor=#999999;strokeColor=none;fontColor=#FFFFFF;rounded=1;shadow=1;fontStyle=0;" parent="1" vertex="1">
          <mxGeometry x="2090" y="1690" width="160" height="60" as="geometry" />
        </mxCell>
        <mxCell id="myqi20wE7shxtgtQEC9K-330" value="" style="edgeStyle=elbowEdgeStyle;elbow=horizontal;rounded=0;fontColor=#000000;endArrow=none;endFill=0;strokeWidth=8;strokeColor=#23445D;entryX=0;entryY=0.5;entryDx=0;entryDy=0;exitX=1;exitY=0.5;exitDx=0;exitDy=0;" parent="1" source="myqi20wE7shxtgtQEC9K-316" target="myqi20wE7shxtgtQEC9K-329" edge="1">
          <mxGeometry width="100" height="100" relative="1" as="geometry">
            <mxPoint x="2030" y="1570" as="sourcePoint" />
            <mxPoint x="2100" y="1650" as="targetPoint" />
            <Array as="points" />
          </mxGeometry>
        </mxCell>
        <mxCell id="myqi20wE7shxtgtQEC9K-331" value="Select report data from database&lt;br&gt;(from data manager -&amp;gt; read api)" style="whiteSpace=wrap;html=1;fillColor=#999999;strokeColor=none;fontColor=#FFFFFF;rounded=1;shadow=1;fontStyle=0;" parent="1" vertex="1">
          <mxGeometry x="2090" y="1770" width="160" height="60" as="geometry" />
        </mxCell>
        <mxCell id="myqi20wE7shxtgtQEC9K-332" value="" style="edgeStyle=elbowEdgeStyle;elbow=horizontal;rounded=0;fontColor=#000000;endArrow=none;endFill=0;strokeWidth=8;strokeColor=#23445D;exitX=1;exitY=0.5;exitDx=0;exitDy=0;" parent="1" source="myqi20wE7shxtgtQEC9K-316" target="myqi20wE7shxtgtQEC9K-331" edge="1">
          <mxGeometry width="100" height="100" relative="1" as="geometry">
            <mxPoint x="2030" y="1570" as="sourcePoint" />
            <mxPoint x="2100" y="1730" as="targetPoint" />
            <Array as="points" />
          </mxGeometry>
        </mxCell>
        <mxCell id="myqi20wE7shxtgtQEC9K-333" value="" style="image;html=1;image=img/lib/clip_art/computers/Data_Filtering_128x128.png" parent="1" vertex="1">
          <mxGeometry x="2090" y="1690" width="20" height="20" as="geometry" />
        </mxCell>
        <mxCell id="myqi20wE7shxtgtQEC9K-334" value="" style="image;html=1;image=img/lib/clip_art/computers/Data_Filtering_128x128.png" parent="1" vertex="1">
          <mxGeometry x="2090" y="1770" width="20" height="20" as="geometry" />
        </mxCell>
        <mxCell id="myqi20wE7shxtgtQEC9K-335" value="Check reader ntp&lt;br&gt;(from reader -&amp;gt; ntp api)" style="whiteSpace=wrap;html=1;fillColor=#999999;strokeColor=none;fontColor=#FFFFFF;rounded=1;shadow=1;fontStyle=0;" parent="1" vertex="1">
          <mxGeometry x="2090" y="1850.0000000000002" width="120" height="60" as="geometry" />
        </mxCell>
        <mxCell id="myqi20wE7shxtgtQEC9K-336" value="Sync NTP" style="whiteSpace=wrap;html=1;fillColor=#999999;strokeColor=none;fontColor=#FFFFFF;rounded=1;shadow=1;fontStyle=0;" parent="1" vertex="1">
          <mxGeometry x="1900" y="1850.0000000000002" width="120" height="60" as="geometry" />
        </mxCell>
        <mxCell id="myqi20wE7shxtgtQEC9K-337" value="" style="edgeStyle=elbowEdgeStyle;elbow=horizontal;rounded=0;fontColor=#000000;endArrow=none;endFill=0;strokeWidth=8;strokeColor=#23445D;" parent="1" edge="1">
          <mxGeometry width="100" height="100" relative="1" as="geometry">
            <mxPoint x="1850" y="1880" as="sourcePoint" />
            <mxPoint x="1900" y="1879.5" as="targetPoint" />
            <Array as="points">
              <mxPoint x="1840" y="1879.5" />
            </Array>
          </mxGeometry>
        </mxCell>
        <mxCell id="myqi20wE7shxtgtQEC9K-338" value="" style="edgeStyle=elbowEdgeStyle;elbow=horizontal;rounded=0;fontColor=#000000;endArrow=none;endFill=0;strokeWidth=8;strokeColor=#23445D;entryX=0;entryY=0.5;entryDx=0;entryDy=0;exitX=1;exitY=0.5;exitDx=0;exitDy=0;" parent="1" edge="1">
          <mxGeometry width="100" height="100" relative="1" as="geometry">
            <mxPoint x="2020" y="1879.5" as="sourcePoint" />
            <mxPoint x="2090" y="1879.5" as="targetPoint" />
            <Array as="points" />
          </mxGeometry>
        </mxCell>
        <mxCell id="myqi20wE7shxtgtQEC9K-339" value="Check HMI ntp" style="whiteSpace=wrap;html=1;fillColor=#999999;strokeColor=none;fontColor=#FFFFFF;rounded=1;shadow=1;fontStyle=0;" parent="1" vertex="1">
          <mxGeometry x="2090" y="1930.0000000000002" width="120" height="60" as="geometry" />
        </mxCell>
        <mxCell id="myqi20wE7shxtgtQEC9K-340" value="產生windows ntp sync api" style="whiteSpace=wrap;html=1;fillColor=#999999;strokeColor=none;fontColor=#FFFFFF;rounded=1;shadow=1;fontStyle=0;" parent="1" vertex="1">
          <mxGeometry x="2090" y="2010.0000000000002" width="120" height="60" as="geometry" />
        </mxCell>
        <mxCell id="myqi20wE7shxtgtQEC9K-341" value="" style="edgeStyle=elbowEdgeStyle;elbow=horizontal;rounded=0;fontColor=#000000;endArrow=none;endFill=0;strokeWidth=8;strokeColor=#23445D;entryX=0;entryY=0.5;entryDx=0;entryDy=0;exitX=1;exitY=0.5;exitDx=0;exitDy=0;" parent="1" source="myqi20wE7shxtgtQEC9K-336" target="myqi20wE7shxtgtQEC9K-339" edge="1">
          <mxGeometry width="100" height="100" relative="1" as="geometry">
            <mxPoint x="2030" y="1889.5" as="sourcePoint" />
            <mxPoint x="2100" y="1889.5" as="targetPoint" />
            <Array as="points" />
          </mxGeometry>
        </mxCell>
        <mxCell id="myqi20wE7shxtgtQEC9K-342" value="" style="edgeStyle=elbowEdgeStyle;elbow=horizontal;rounded=0;fontColor=#000000;endArrow=none;endFill=0;strokeWidth=8;strokeColor=#23445D;entryX=0;entryY=0.5;entryDx=0;entryDy=0;exitX=1;exitY=0.5;exitDx=0;exitDy=0;" parent="1" source="myqi20wE7shxtgtQEC9K-336" target="myqi20wE7shxtgtQEC9K-340" edge="1">
          <mxGeometry width="100" height="100" relative="1" as="geometry">
            <mxPoint x="2030" y="1890" as="sourcePoint" />
            <mxPoint x="2100" y="1970" as="targetPoint" />
            <Array as="points" />
          </mxGeometry>
        </mxCell>
        <mxCell id="myqi20wE7shxtgtQEC9K-343" value="Get system time" style="whiteSpace=wrap;html=1;fillColor=#999999;strokeColor=none;fontColor=#FFFFFF;rounded=1;shadow=1;fontStyle=0;" parent="1" vertex="1">
          <mxGeometry x="1900" y="2090" width="120" height="60" as="geometry" />
        </mxCell>
        <mxCell id="myqi20wE7shxtgtQEC9K-344" value="Get reader time&lt;br&gt;(from reader -&amp;gt; ntp api)" style="whiteSpace=wrap;html=1;fillColor=#999999;strokeColor=none;fontColor=#FFFFFF;rounded=1;shadow=1;fontStyle=0;" parent="1" vertex="1">
          <mxGeometry x="2090" y="2090" width="120" height="60" as="geometry" />
        </mxCell>
        <mxCell id="myqi20wE7shxtgtQEC9K-345" value="" style="edgeStyle=elbowEdgeStyle;elbow=horizontal;rounded=0;fontColor=#000000;endArrow=none;endFill=0;strokeWidth=8;strokeColor=#23445D;exitX=1;exitY=0.5;exitDx=0;exitDy=0;entryX=0;entryY=0.5;entryDx=0;entryDy=0;" parent="1" source="myqi20wE7shxtgtQEC9K-268" target="myqi20wE7shxtgtQEC9K-343" edge="1">
          <mxGeometry width="100" height="100" relative="1" as="geometry">
            <mxPoint x="1660" y="1889.5" as="sourcePoint" />
            <mxPoint x="1910" y="1889.5" as="targetPoint" />
            <Array as="points">
              <mxPoint x="1850" y="1889.5" />
            </Array>
          </mxGeometry>
        </mxCell>
        <mxCell id="myqi20wE7shxtgtQEC9K-346" value="" style="edgeStyle=elbowEdgeStyle;elbow=horizontal;rounded=0;fontColor=#000000;endArrow=none;endFill=0;strokeWidth=8;strokeColor=#23445D;entryX=0;entryY=0.5;entryDx=0;entryDy=0;exitX=1;exitY=0.5;exitDx=0;exitDy=0;" parent="1" edge="1">
          <mxGeometry width="100" height="100" relative="1" as="geometry">
            <mxPoint x="2020" y="2119.5" as="sourcePoint" />
            <mxPoint x="2090" y="2119.5" as="targetPoint" />
            <Array as="points" />
          </mxGeometry>
        </mxCell>
        <mxCell id="myqi20wE7shxtgtQEC9K-347" value="Get HMI time" style="whiteSpace=wrap;html=1;fillColor=#999999;strokeColor=none;fontColor=#FFFFFF;rounded=1;shadow=1;fontStyle=0;" parent="1" vertex="1">
          <mxGeometry x="2090" y="2170" width="120" height="60" as="geometry" />
        </mxCell>
        <mxCell id="myqi20wE7shxtgtQEC9K-348" value="" style="edgeStyle=elbowEdgeStyle;elbow=horizontal;rounded=0;fontColor=#000000;endArrow=none;endFill=0;strokeWidth=8;strokeColor=#23445D;entryX=0;entryY=0.5;entryDx=0;entryDy=0;exitX=1;exitY=0.5;exitDx=0;exitDy=0;" parent="1" source="myqi20wE7shxtgtQEC9K-343" target="myqi20wE7shxtgtQEC9K-347" edge="1">
          <mxGeometry width="100" height="100" relative="1" as="geometry">
            <mxPoint x="2030" y="2129.5" as="sourcePoint" />
            <mxPoint x="2100" y="2129.5" as="targetPoint" />
            <Array as="points" />
          </mxGeometry>
        </mxCell>
        <mxCell id="myqi20wE7shxtgtQEC9K-349" value="Set timezone" style="whiteSpace=wrap;html=1;fillColor=#999999;strokeColor=none;fontColor=#FFFFFF;rounded=1;shadow=1;fontStyle=0;" parent="1" vertex="1">
          <mxGeometry x="1900" y="2170" width="120" height="60" as="geometry" />
        </mxCell>
        <mxCell id="myqi20wE7shxtgtQEC9K-350" value="" style="edgeStyle=elbowEdgeStyle;elbow=horizontal;rounded=0;fontColor=#000000;endArrow=none;endFill=0;strokeWidth=8;strokeColor=#23445D;exitX=1;exitY=0.5;exitDx=0;exitDy=0;entryX=0;entryY=0.5;entryDx=0;entryDy=0;" parent="1" source="myqi20wE7shxtgtQEC9K-268" target="myqi20wE7shxtgtQEC9K-349" edge="1">
          <mxGeometry width="100" height="100" relative="1" as="geometry">
            <mxPoint x="1660" y="1890" as="sourcePoint" />
            <mxPoint x="1910" y="2130" as="targetPoint" />
            <Array as="points">
              <mxPoint x="1850" y="2080" />
            </Array>
          </mxGeometry>
        </mxCell>
        <mxCell id="myqi20wE7shxtgtQEC9K-351" value="Set power&lt;br&gt;(to reader -&amp;gt; rf setting api)" style="whiteSpace=wrap;html=1;fillColor=#999999;strokeColor=none;fontColor=#FFFFFF;rounded=1;shadow=1;fontStyle=0;" parent="1" vertex="1">
          <mxGeometry x="2090" y="2330" width="120" height="60" as="geometry" />
        </mxCell>
        <mxCell id="myqi20wE7shxtgtQEC9K-352" value="Set antenna&lt;br&gt;(to reader -&amp;gt; rf setting api)" style="whiteSpace=wrap;html=1;fillColor=#999999;strokeColor=none;fontColor=#FFFFFF;rounded=1;shadow=1;fontStyle=0;" parent="1" vertex="1">
          <mxGeometry x="2090" y="2250" width="120" height="60" as="geometry" />
        </mxCell>
        <mxCell id="myqi20wE7shxtgtQEC9K-353" value="Set RF" style="whiteSpace=wrap;html=1;fillColor=#999999;strokeColor=none;fontColor=#FFFFFF;rounded=1;shadow=1;fontStyle=0;" parent="1" vertex="1">
          <mxGeometry x="1900" y="2250" width="120" height="60" as="geometry" />
        </mxCell>
        <mxCell id="myqi20wE7shxtgtQEC9K-354" value="Set session&lt;br&gt;(to reader -&amp;gt; rf setting api)" style="whiteSpace=wrap;html=1;fillColor=#999999;strokeColor=none;fontColor=#FFFFFF;rounded=1;shadow=1;fontStyle=0;" parent="1" vertex="1">
          <mxGeometry x="2090" y="2410" width="120" height="60" as="geometry" />
        </mxCell>
        <mxCell id="myqi20wE7shxtgtQEC9K-355" value="Set Q-factor&lt;br&gt;(to reader -&amp;gt; rf setting api)" style="whiteSpace=wrap;html=1;fillColor=#999999;strokeColor=none;fontColor=#FFFFFF;rounded=1;shadow=1;fontStyle=0;" parent="1" vertex="1">
          <mxGeometry x="2090" y="2490" width="120" height="60" as="geometry" />
        </mxCell>
        <mxCell id="myqi20wE7shxtgtQEC9K-356" value="" style="edgeStyle=elbowEdgeStyle;elbow=horizontal;rounded=0;fontColor=#000000;endArrow=none;endFill=0;strokeWidth=8;strokeColor=#23445D;exitX=1;exitY=0.5;exitDx=0;exitDy=0;" parent="1" source="myqi20wE7shxtgtQEC9K-269" edge="1">
          <mxGeometry width="100" height="100" relative="1" as="geometry">
            <mxPoint x="1840" y="2280" as="sourcePoint" />
            <mxPoint x="1900" y="2280" as="targetPoint" />
            <Array as="points">
              <mxPoint x="1840" y="2280" />
            </Array>
          </mxGeometry>
        </mxCell>
        <mxCell id="myqi20wE7shxtgtQEC9K-357" value="" style="edgeStyle=elbowEdgeStyle;elbow=horizontal;rounded=0;fontColor=#000000;endArrow=none;endFill=0;strokeWidth=8;strokeColor=#23445D;entryX=0;entryY=0.5;entryDx=0;entryDy=0;exitX=1;exitY=0.5;exitDx=0;exitDy=0;" parent="1" edge="1">
          <mxGeometry width="100" height="100" relative="1" as="geometry">
            <mxPoint x="2020" y="2279.5" as="sourcePoint" />
            <mxPoint x="2090" y="2279.5" as="targetPoint" />
            <Array as="points" />
          </mxGeometry>
        </mxCell>
        <mxCell id="myqi20wE7shxtgtQEC9K-358" value="" style="edgeStyle=elbowEdgeStyle;elbow=horizontal;rounded=0;fontColor=#000000;endArrow=none;endFill=0;strokeWidth=8;strokeColor=#23445D;entryX=0;entryY=0.5;entryDx=0;entryDy=0;" parent="1" target="myqi20wE7shxtgtQEC9K-351" edge="1">
          <mxGeometry width="100" height="100" relative="1" as="geometry">
            <mxPoint x="2020" y="2280" as="sourcePoint" />
            <mxPoint x="2100" y="2289.5" as="targetPoint" />
            <Array as="points" />
          </mxGeometry>
        </mxCell>
        <mxCell id="myqi20wE7shxtgtQEC9K-359" value="" style="edgeStyle=elbowEdgeStyle;elbow=horizontal;rounded=0;fontColor=#000000;endArrow=none;endFill=0;strokeWidth=8;strokeColor=#23445D;entryX=0;entryY=0.5;entryDx=0;entryDy=0;exitX=1;exitY=0.5;exitDx=0;exitDy=0;" parent="1" source="myqi20wE7shxtgtQEC9K-353" target="myqi20wE7shxtgtQEC9K-354" edge="1">
          <mxGeometry width="100" height="100" relative="1" as="geometry">
            <mxPoint x="2040" y="2299.5" as="sourcePoint" />
            <mxPoint x="2110" y="2299.5" as="targetPoint" />
            <Array as="points" />
          </mxGeometry>
        </mxCell>
        <mxCell id="myqi20wE7shxtgtQEC9K-360" value="" style="edgeStyle=elbowEdgeStyle;elbow=horizontal;rounded=0;fontColor=#000000;endArrow=none;endFill=0;strokeWidth=8;strokeColor=#23445D;exitX=1;exitY=0.5;exitDx=0;exitDy=0;" parent="1" source="myqi20wE7shxtgtQEC9K-353" target="myqi20wE7shxtgtQEC9K-355" edge="1">
          <mxGeometry width="100" height="100" relative="1" as="geometry">
            <mxPoint x="2050" y="2309.5" as="sourcePoint" />
            <mxPoint x="2120" y="2309.5" as="targetPoint" />
            <Array as="points" />
          </mxGeometry>
        </mxCell>
        <mxCell id="myqi20wE7shxtgtQEC9K-361" value="Socker server" style="whiteSpace=wrap;html=1;fillColor=#999999;strokeColor=none;fontColor=#FFFFFF;rounded=1;shadow=1;fontStyle=0;" parent="1" vertex="1">
          <mxGeometry x="1349.9999999999998" y="720.0000000000002" width="120" height="60" as="geometry" />
        </mxCell>
        <mxCell id="myqi20wE7shxtgtQEC9K-362" value="Test reader connection" style="whiteSpace=wrap;html=1;fillColor=#999999;strokeColor=none;fontColor=#FFFFFF;rounded=1;shadow=1;fontStyle=0;" parent="1" vertex="1">
          <mxGeometry x="1509.9999999999998" y="720.0000000000002" width="120" height="60" as="geometry" />
        </mxCell>
        <mxCell id="myqi20wE7shxtgtQEC9K-363" value="Test multi-reader s connection" style="whiteSpace=wrap;html=1;fillColor=#999999;strokeColor=none;fontColor=#FFFFFF;rounded=1;shadow=1;fontStyle=0;" parent="1" vertex="1">
          <mxGeometry x="1509.9999999999998" y="800.0000000000002" width="120" height="60" as="geometry" />
        </mxCell>
        <mxCell id="14J2bq57vGtZK2Nbp2-c-234" value="Test connection limit" style="whiteSpace=wrap;html=1;fillColor=#999999;strokeColor=none;fontColor=#FFFFFF;rounded=1;shadow=1;fontStyle=0;" parent="1" vertex="1">
          <mxGeometry x="1509.9999999999998" y="880.0000000000002" width="120" height="60" as="geometry" />
        </mxCell>
        <mxCell id="14J2bq57vGtZK2Nbp2-c-236" value="" style="edgeStyle=elbowEdgeStyle;elbow=horizontal;rounded=0;fontColor=#000000;endArrow=none;endFill=0;strokeWidth=8;strokeColor=#23445D;exitX=1;exitY=0.5;exitDx=0;exitDy=0;entryX=0;entryY=0.5;entryDx=0;entryDy=0;" parent="1" source="159" target="myqi20wE7shxtgtQEC9K-361" edge="1">
          <mxGeometry width="100" height="100" relative="1" as="geometry">
            <mxPoint x="1310" y="680" as="sourcePoint" />
            <mxPoint x="1704" y="680" as="targetPoint" />
            <Array as="points" />
          </mxGeometry>
        </mxCell>
        <mxCell id="14J2bq57vGtZK2Nbp2-c-237" value="" style="edgeStyle=elbowEdgeStyle;elbow=horizontal;rounded=0;fontColor=#000000;endArrow=none;endFill=0;strokeWidth=8;strokeColor=#23445D;exitX=1;exitY=0.5;exitDx=0;exitDy=0;entryX=0;entryY=0.5;entryDx=0;entryDy=0;" parent="1" target="myqi20wE7shxtgtQEC9K-362" edge="1">
          <mxGeometry width="100" height="100" relative="1" as="geometry">
            <mxPoint x="1470" y="749.74" as="sourcePoint" />
            <mxPoint x="1520" y="749.74" as="targetPoint" />
            <Array as="points" />
          </mxGeometry>
        </mxCell>
        <mxCell id="14J2bq57vGtZK2Nbp2-c-238" value="" style="edgeStyle=elbowEdgeStyle;elbow=horizontal;rounded=0;fontColor=#000000;endArrow=none;endFill=0;strokeWidth=8;strokeColor=#23445D;exitX=1;exitY=0.5;exitDx=0;exitDy=0;entryX=0;entryY=0.5;entryDx=0;entryDy=0;" parent="1" source="myqi20wE7shxtgtQEC9K-361" target="myqi20wE7shxtgtQEC9K-363" edge="1">
          <mxGeometry width="100" height="100" relative="1" as="geometry">
            <mxPoint x="1320" y="770" as="sourcePoint" />
            <mxPoint x="1370" y="770" as="targetPoint" />
            <Array as="points" />
          </mxGeometry>
        </mxCell>
        <mxCell id="14J2bq57vGtZK2Nbp2-c-239" value="" style="edgeStyle=elbowEdgeStyle;elbow=horizontal;rounded=0;fontColor=#000000;endArrow=none;endFill=0;strokeWidth=8;strokeColor=#23445D;exitX=1;exitY=0.5;exitDx=0;exitDy=0;entryX=0;entryY=0.5;entryDx=0;entryDy=0;" parent="1" source="myqi20wE7shxtgtQEC9K-361" target="14J2bq57vGtZK2Nbp2-c-234" edge="1">
          <mxGeometry width="100" height="100" relative="1" as="geometry">
            <mxPoint x="1480" y="760" as="sourcePoint" />
            <mxPoint x="1520" y="840" as="targetPoint" />
            <Array as="points" />
          </mxGeometry>
        </mxCell>
        <mxCell id="14J2bq57vGtZK2Nbp2-c-240" value="Test data manager api" style="whiteSpace=wrap;html=1;fillColor=#999999;strokeColor=none;fontColor=#FFFFFF;rounded=1;shadow=1;fontStyle=0;" parent="1" vertex="1">
          <mxGeometry x="1349.9999999999998" y="960.0000000000002" width="120" height="60" as="geometry" />
        </mxCell>
        <mxCell id="14J2bq57vGtZK2Nbp2-c-241" value="" style="edgeStyle=elbowEdgeStyle;elbow=horizontal;rounded=0;fontColor=#000000;endArrow=none;endFill=0;strokeWidth=8;strokeColor=#23445D;exitX=1;exitY=0.5;exitDx=0;exitDy=0;entryX=0;entryY=0.5;entryDx=0;entryDy=0;" parent="1" source="159" target="14J2bq57vGtZK2Nbp2-c-240" edge="1">
          <mxGeometry width="100" height="100" relative="1" as="geometry">
            <mxPoint x="1310" y="760" as="sourcePoint" />
            <mxPoint x="1360" y="760" as="targetPoint" />
            <Array as="points" />
          </mxGeometry>
        </mxCell>
        <mxCell id="14J2bq57vGtZK2Nbp2-c-242" value="Test creat" style="whiteSpace=wrap;html=1;fillColor=#999999;strokeColor=none;fontColor=#FFFFFF;rounded=1;shadow=1;fontStyle=0;" parent="1" vertex="1">
          <mxGeometry x="1509.9999999999998" y="960.0000000000002" width="120" height="60" as="geometry" />
        </mxCell>
        <mxCell id="14J2bq57vGtZK2Nbp2-c-243" value="Test read" style="whiteSpace=wrap;html=1;fillColor=#999999;strokeColor=none;fontColor=#FFFFFF;rounded=1;shadow=1;fontStyle=0;" parent="1" vertex="1">
          <mxGeometry x="1509.9999999999998" y="1040.0000000000002" width="120" height="60" as="geometry" />
        </mxCell>
        <mxCell id="14J2bq57vGtZK2Nbp2-c-244" value="Test update" style="whiteSpace=wrap;html=1;fillColor=#999999;strokeColor=none;fontColor=#FFFFFF;rounded=1;shadow=1;fontStyle=0;" parent="1" vertex="1">
          <mxGeometry x="1509.9999999999998" y="1120.0000000000002" width="120" height="60" as="geometry" />
        </mxCell>
        <mxCell id="14J2bq57vGtZK2Nbp2-c-245" value="Test delete" style="whiteSpace=wrap;html=1;fillColor=#999999;strokeColor=none;fontColor=#FFFFFF;rounded=1;shadow=1;fontStyle=0;" parent="1" vertex="1">
          <mxGeometry x="1509.9999999999998" y="1200.0000000000002" width="120" height="60" as="geometry" />
        </mxCell>
        <mxCell id="14J2bq57vGtZK2Nbp2-c-246" value="Test backup" style="whiteSpace=wrap;html=1;fillColor=#999999;strokeColor=none;fontColor=#FFFFFF;rounded=1;shadow=1;fontStyle=0;" parent="1" vertex="1">
          <mxGeometry x="1509.9999999999998" y="1280.0000000000002" width="120" height="60" as="geometry" />
        </mxCell>
        <mxCell id="14J2bq57vGtZK2Nbp2-c-247" value="Test restore" style="whiteSpace=wrap;html=1;fillColor=#999999;strokeColor=none;fontColor=#FFFFFF;rounded=1;shadow=1;fontStyle=0;" parent="1" vertex="1">
          <mxGeometry x="1509.9999999999998" y="1360.0000000000002" width="120" height="60" as="geometry" />
        </mxCell>
        <mxCell id="14J2bq57vGtZK2Nbp2-c-248" value="" style="edgeStyle=elbowEdgeStyle;elbow=horizontal;rounded=0;fontColor=#000000;endArrow=none;endFill=0;strokeWidth=8;strokeColor=#23445D;exitX=1;exitY=0.5;exitDx=0;exitDy=0;entryX=0;entryY=0.5;entryDx=0;entryDy=0;" parent="1" edge="1">
          <mxGeometry width="100" height="100" relative="1" as="geometry">
            <mxPoint x="1470" y="989.87" as="sourcePoint" />
            <mxPoint x="1510" y="990.13" as="targetPoint" />
            <Array as="points" />
          </mxGeometry>
        </mxCell>
        <mxCell id="14J2bq57vGtZK2Nbp2-c-249" value="" style="edgeStyle=elbowEdgeStyle;elbow=horizontal;rounded=0;fontColor=#000000;endArrow=none;endFill=0;strokeWidth=8;strokeColor=#23445D;exitX=1;exitY=0.5;exitDx=0;exitDy=0;entryX=0;entryY=0.5;entryDx=0;entryDy=0;" parent="1" edge="1">
          <mxGeometry width="100" height="100" relative="1" as="geometry">
            <mxPoint x="1470" y="990.13" as="sourcePoint" />
            <mxPoint x="1510" y="1070.13" as="targetPoint" />
            <Array as="points" />
          </mxGeometry>
        </mxCell>
        <mxCell id="14J2bq57vGtZK2Nbp2-c-250" value="" style="edgeStyle=elbowEdgeStyle;elbow=horizontal;rounded=0;fontColor=#000000;endArrow=none;endFill=0;strokeWidth=8;strokeColor=#23445D;exitX=1;exitY=0.5;exitDx=0;exitDy=0;entryX=0;entryY=0.5;entryDx=0;entryDy=0;" parent="1" edge="1">
          <mxGeometry width="100" height="100" relative="1" as="geometry">
            <mxPoint x="1470" y="990.13" as="sourcePoint" />
            <mxPoint x="1510" y="1150.13" as="targetPoint" />
            <Array as="points" />
          </mxGeometry>
        </mxCell>
        <mxCell id="14J2bq57vGtZK2Nbp2-c-254" value="" style="edgeStyle=elbowEdgeStyle;elbow=horizontal;rounded=0;fontColor=#000000;endArrow=none;endFill=0;strokeWidth=8;strokeColor=#23445D;exitX=1;exitY=0.5;exitDx=0;exitDy=0;entryX=0;entryY=0.5;entryDx=0;entryDy=0;" parent="1" source="14J2bq57vGtZK2Nbp2-c-240" target="14J2bq57vGtZK2Nbp2-c-245" edge="1">
          <mxGeometry width="100" height="100" relative="1" as="geometry">
            <mxPoint x="1480" y="1000.13" as="sourcePoint" />
            <mxPoint x="1520" y="1160.13" as="targetPoint" />
            <Array as="points" />
          </mxGeometry>
        </mxCell>
        <mxCell id="14J2bq57vGtZK2Nbp2-c-255" value="" style="edgeStyle=elbowEdgeStyle;elbow=horizontal;rounded=0;fontColor=#000000;endArrow=none;endFill=0;strokeWidth=8;strokeColor=#23445D;exitX=1;exitY=0.5;exitDx=0;exitDy=0;entryX=0;entryY=0.5;entryDx=0;entryDy=0;" parent="1" source="14J2bq57vGtZK2Nbp2-c-240" target="14J2bq57vGtZK2Nbp2-c-246" edge="1">
          <mxGeometry width="100" height="100" relative="1" as="geometry">
            <mxPoint x="1490" y="1010.13" as="sourcePoint" />
            <mxPoint x="1530" y="1170.13" as="targetPoint" />
            <Array as="points" />
          </mxGeometry>
        </mxCell>
        <mxCell id="14J2bq57vGtZK2Nbp2-c-256" value="" style="edgeStyle=elbowEdgeStyle;elbow=horizontal;rounded=0;fontColor=#000000;endArrow=none;endFill=0;strokeWidth=8;strokeColor=#23445D;exitX=1;exitY=0.5;exitDx=0;exitDy=0;entryX=0;entryY=0.5;entryDx=0;entryDy=0;" parent="1" source="14J2bq57vGtZK2Nbp2-c-240" target="14J2bq57vGtZK2Nbp2-c-247" edge="1">
          <mxGeometry width="100" height="100" relative="1" as="geometry">
            <mxPoint x="1480" y="1000" as="sourcePoint" />
            <mxPoint x="1520" y="1320" as="targetPoint" />
            <Array as="points" />
          </mxGeometry>
        </mxCell>
        <mxCell id="14J2bq57vGtZK2Nbp2-c-257" value="Test data analyzer" style="whiteSpace=wrap;html=1;fillColor=#999999;strokeColor=none;fontColor=#FFFFFF;rounded=1;shadow=1;fontStyle=0;" parent="1" vertex="1">
          <mxGeometry x="1349.9999999999998" y="1200.0000000000002" width="120" height="60" as="geometry" />
        </mxCell>
        <mxCell id="14J2bq57vGtZK2Nbp2-c-258" value="" style="edgeStyle=elbowEdgeStyle;elbow=horizontal;rounded=0;fontColor=#000000;endArrow=none;endFill=0;strokeWidth=8;strokeColor=#23445D;exitX=1;exitY=0.5;exitDx=0;exitDy=0;entryX=0;entryY=0.5;entryDx=0;entryDy=0;" parent="1" source="159" target="14J2bq57vGtZK2Nbp2-c-257" edge="1">
          <mxGeometry width="100" height="100" relative="1" as="geometry">
            <mxPoint x="1310" y="760" as="sourcePoint" />
            <mxPoint x="1360" y="1000" as="targetPoint" />
            <Array as="points" />
          </mxGeometry>
        </mxCell>
        <mxCell id="14J2bq57vGtZK2Nbp2-c-259" value="Test time service" style="whiteSpace=wrap;html=1;fillColor=#999999;strokeColor=none;fontColor=#FFFFFF;rounded=1;shadow=1;fontStyle=0;" parent="1" vertex="1">
          <mxGeometry x="1349.9999999999998" y="1440.0000000000002" width="120" height="60" as="geometry" />
        </mxCell>
        <mxCell id="14J2bq57vGtZK2Nbp2-c-260" value="Test reader time api" style="whiteSpace=wrap;html=1;fillColor=#999999;strokeColor=none;fontColor=#FFFFFF;rounded=1;shadow=1;fontStyle=0;" parent="1" vertex="1">
          <mxGeometry x="1509.9999999999998" y="1440.0000000000002" width="120" height="60" as="geometry" />
        </mxCell>
        <mxCell id="14J2bq57vGtZK2Nbp2-c-261" value="test HMI time api" style="whiteSpace=wrap;html=1;fillColor=#999999;strokeColor=none;fontColor=#FFFFFF;rounded=1;shadow=1;fontStyle=0;" parent="1" vertex="1">
          <mxGeometry x="1509.9999999999998" y="1520.0000000000002" width="120" height="60" as="geometry" />
        </mxCell>
        <mxCell id="14J2bq57vGtZK2Nbp2-c-262" value="" style="edgeStyle=elbowEdgeStyle;elbow=horizontal;rounded=0;fontColor=#000000;endArrow=none;endFill=0;strokeWidth=8;strokeColor=#23445D;exitX=1;exitY=0.5;exitDx=0;exitDy=0;entryX=0;entryY=0.5;entryDx=0;entryDy=0;" parent="1" source="159" target="14J2bq57vGtZK2Nbp2-c-259" edge="1">
          <mxGeometry width="100" height="100" relative="1" as="geometry">
            <mxPoint x="1310" y="760" as="sourcePoint" />
            <mxPoint x="1360" y="1080" as="targetPoint" />
            <Array as="points" />
          </mxGeometry>
        </mxCell>
        <mxCell id="14J2bq57vGtZK2Nbp2-c-263" value="" style="edgeStyle=elbowEdgeStyle;elbow=horizontal;rounded=0;fontColor=#000000;endArrow=none;endFill=0;strokeWidth=8;strokeColor=#23445D;exitX=1;exitY=0.5;exitDx=0;exitDy=0;entryX=0;entryY=0.5;entryDx=0;entryDy=0;" parent="1" edge="1">
          <mxGeometry width="100" height="100" relative="1" as="geometry">
            <mxPoint x="1470" y="1470" as="sourcePoint" />
            <mxPoint x="1510" y="1470.26" as="targetPoint" />
            <Array as="points" />
          </mxGeometry>
        </mxCell>
        <mxCell id="14J2bq57vGtZK2Nbp2-c-264" value="" style="edgeStyle=elbowEdgeStyle;elbow=horizontal;rounded=0;fontColor=#000000;endArrow=none;endFill=0;strokeWidth=8;strokeColor=#23445D;exitX=1;exitY=0.5;exitDx=0;exitDy=0;entryX=0;entryY=0.5;entryDx=0;entryDy=0;" parent="1" edge="1">
          <mxGeometry width="100" height="100" relative="1" as="geometry">
            <mxPoint x="1470" y="1470.26" as="sourcePoint" />
            <mxPoint x="1510" y="1550.2600000000002" as="targetPoint" />
            <Array as="points" />
          </mxGeometry>
        </mxCell>
        <mxCell id="14J2bq57vGtZK2Nbp2-c-265" value="Test reader setting" style="whiteSpace=wrap;html=1;fillColor=#999999;strokeColor=none;fontColor=#FFFFFF;rounded=1;shadow=1;fontStyle=0;" parent="1" vertex="1">
          <mxGeometry x="1349.9999999999998" y="1520.0000000000002" width="120" height="60" as="geometry" />
        </mxCell>
        <mxCell id="14J2bq57vGtZK2Nbp2-c-266" value="" style="edgeStyle=elbowEdgeStyle;elbow=horizontal;rounded=0;fontColor=#000000;endArrow=none;endFill=0;strokeWidth=8;strokeColor=#23445D;exitX=1;exitY=0.5;exitDx=0;exitDy=0;entryX=0;entryY=0.5;entryDx=0;entryDy=0;" parent="1" source="159" target="14J2bq57vGtZK2Nbp2-c-265" edge="1">
          <mxGeometry width="100" height="100" relative="1" as="geometry">
            <mxPoint x="1310" y="760" as="sourcePoint" />
            <mxPoint x="1360" y="1480" as="targetPoint" />
            <Array as="points" />
          </mxGeometry>
        </mxCell>
        <mxCell id="14J2bq57vGtZK2Nbp2-c-268" value="主頁面" style="whiteSpace=wrap;rounded=1;fillColor=#999999;strokeColor=none;shadow=1;fontColor=#FFFFFF;fontStyle=0" parent="1" vertex="1">
          <mxGeometry x="2459.9999999999995" y="480.0000000000002" width="120" height="60" as="geometry" />
        </mxCell>
        <mxCell id="14J2bq57vGtZK2Nbp2-c-269" value=" 設計選單功能" style="whiteSpace=wrap;rounded=1;fillColor=#999999;strokeColor=none;shadow=1;fontColor=#FFFFFF;fontStyle=0" parent="1" vertex="1">
          <mxGeometry x="2639.9999999999995" y="400.0000000000002" width="120" height="60" as="geometry" />
        </mxCell>
        <mxCell id="14J2bq57vGtZK2Nbp2-c-270" value="設計Dashboard" style="whiteSpace=wrap;rounded=1;fillColor=#999999;strokeColor=none;shadow=1;fontColor=#FFFFFF;fontStyle=0" parent="1" vertex="1">
          <mxGeometry x="2639.9999999999995" y="480.0000000000002" width="120" height="60" as="geometry" />
        </mxCell>
        <mxCell id="14J2bq57vGtZK2Nbp2-c-271" value="" style="edgeStyle=elbowEdgeStyle;elbow=horizontal;rounded=0;fontColor=#000000;endArrow=none;endFill=0;strokeWidth=8;strokeColor=#23445D;entryX=0;entryY=0.5;entryDx=0;entryDy=0;" parent="1" source="163" target="14J2bq57vGtZK2Nbp2-c-268" edge="1">
          <mxGeometry width="100" height="100" relative="1" as="geometry">
            <mxPoint x="2400" y="509.44" as="sourcePoint" />
            <mxPoint x="2470" y="509.44" as="targetPoint" />
            <Array as="points" />
          </mxGeometry>
        </mxCell>
        <mxCell id="14J2bq57vGtZK2Nbp2-c-273" value="" style="edgeStyle=elbowEdgeStyle;elbow=horizontal;rounded=0;fontColor=#000000;endArrow=none;endFill=0;strokeWidth=8;strokeColor=#23445D;exitX=1;exitY=0.5;exitDx=0;exitDy=0;" parent="1" source="14J2bq57vGtZK2Nbp2-c-268" target="14J2bq57vGtZK2Nbp2-c-270" edge="1">
          <mxGeometry width="100" height="100" relative="1" as="geometry">
            <mxPoint x="2630" y="600" as="sourcePoint" />
            <mxPoint x="2730" y="600" as="targetPoint" />
            <Array as="points" />
          </mxGeometry>
        </mxCell>
        <mxCell id="14J2bq57vGtZK2Nbp2-c-275" value="" style="edgeStyle=elbowEdgeStyle;elbow=horizontal;rounded=0;fontColor=#000000;endArrow=none;endFill=0;strokeWidth=8;strokeColor=#23445D;" parent="1" source="14J2bq57vGtZK2Nbp2-c-268" target="14J2bq57vGtZK2Nbp2-c-269" edge="1">
          <mxGeometry width="100" height="100" relative="1" as="geometry">
            <mxPoint x="2630" y="600" as="sourcePoint" />
            <mxPoint x="2730" y="680" as="targetPoint" />
            <Array as="points" />
          </mxGeometry>
        </mxCell>
        <mxCell id="14J2bq57vGtZK2Nbp2-c-276" value="設計給線段空軸準備區更新" style="whiteSpace=wrap;rounded=1;fillColor=#999999;strokeColor=none;shadow=1;fontColor=#FFFFFF;fontStyle=0" parent="1" vertex="1">
          <mxGeometry x="2819.9999999999995" y="640.0000000000002" width="120" height="60" as="geometry" />
        </mxCell>
        <mxCell id="14J2bq57vGtZK2Nbp2-c-277" value="排版頁面" style="whiteSpace=wrap;rounded=1;fillColor=#999999;strokeColor=none;shadow=1;fontColor=#FFFFFF;fontStyle=0" parent="1" vertex="1">
          <mxGeometry x="2819.9999999999995" y="480.0000000000002" width="120" height="60" as="geometry" />
        </mxCell>
        <mxCell id="14J2bq57vGtZK2Nbp2-c-278" value="設計捲取段滿軸準備區更新" style="whiteSpace=wrap;rounded=1;fillColor=#999999;strokeColor=none;shadow=1;fontColor=#FFFFFF;fontStyle=0" parent="1" vertex="1">
          <mxGeometry x="2819.9999999999995" y="720.0000000000002" width="120" height="60" as="geometry" />
        </mxCell>
        <mxCell id="14J2bq57vGtZK2Nbp2-c-279" value="" style="edgeStyle=elbowEdgeStyle;elbow=horizontal;rounded=0;fontColor=#000000;endArrow=none;endFill=0;strokeWidth=8;strokeColor=#23445D;" parent="1" source="14J2bq57vGtZK2Nbp2-c-270" target="14J2bq57vGtZK2Nbp2-c-278" edge="1">
          <mxGeometry width="100" height="100" relative="1" as="geometry">
            <mxPoint x="2760" y="589.6" as="sourcePoint" />
            <mxPoint x="2820" y="589.6" as="targetPoint" />
            <Array as="points" />
          </mxGeometry>
        </mxCell>
        <mxCell id="14J2bq57vGtZK2Nbp2-c-280" value="" style="edgeStyle=elbowEdgeStyle;elbow=horizontal;rounded=0;fontColor=#000000;endArrow=none;endFill=0;strokeWidth=8;strokeColor=#23445D;exitX=1;exitY=0.5;exitDx=0;exitDy=0;" parent="1" source="14J2bq57vGtZK2Nbp2-c-270" target="14J2bq57vGtZK2Nbp2-c-276" edge="1">
          <mxGeometry width="100" height="100" relative="1" as="geometry">
            <mxPoint x="2760" y="590" as="sourcePoint" />
            <mxPoint x="2820" y="619.2" as="targetPoint" />
            <Array as="points" />
          </mxGeometry>
        </mxCell>
        <mxCell id="14J2bq57vGtZK2Nbp2-c-281" value="" style="edgeStyle=elbowEdgeStyle;elbow=horizontal;rounded=0;fontColor=#000000;endArrow=none;endFill=0;strokeWidth=8;strokeColor=#23445D;exitX=1;exitY=0.5;exitDx=0;exitDy=0;" parent="1" source="14J2bq57vGtZK2Nbp2-c-270" target="14J2bq57vGtZK2Nbp2-c-277" edge="1">
          <mxGeometry width="100" height="100" relative="1" as="geometry">
            <mxPoint x="2770" y="600" as="sourcePoint" />
            <mxPoint x="2830" y="600" as="targetPoint" />
            <Array as="points" />
          </mxGeometry>
        </mxCell>
        <mxCell id="14J2bq57vGtZK2Nbp2-c-282" value="Read database for machine initial setting&#xa;(from database -&gt; read api)" style="whiteSpace=wrap;rounded=1;fillColor=#999999;strokeColor=none;shadow=1;fontColor=#FFFFFF;fontStyle=0" parent="1" vertex="1">
          <mxGeometry x="2819.9999999999995" y="400.0000000000002" width="120" height="60" as="geometry" />
        </mxCell>
        <mxCell id="14J2bq57vGtZK2Nbp2-c-283" value="" style="edgeStyle=elbowEdgeStyle;elbow=horizontal;rounded=0;fontColor=#000000;endArrow=none;endFill=0;strokeWidth=8;strokeColor=#23445D;exitX=1;exitY=0.5;exitDx=0;exitDy=0;" parent="1" source="14J2bq57vGtZK2Nbp2-c-270" target="14J2bq57vGtZK2Nbp2-c-282" edge="1">
          <mxGeometry width="100" height="100" relative="1" as="geometry">
            <mxPoint x="2770" y="600" as="sourcePoint" />
            <mxPoint x="2830" y="440" as="targetPoint" />
            <Array as="points" />
          </mxGeometry>
        </mxCell>
        <mxCell id="14J2bq57vGtZK2Nbp2-c-284" value="選單：機台設定" style="whiteSpace=wrap;rounded=1;fillColor=#999999;strokeColor=none;shadow=1;fontColor=#FFFFFF;fontStyle=0" parent="1" vertex="1">
          <mxGeometry x="2459.9999999999995" y="560.0000000000002" width="120" height="60" as="geometry" />
        </mxCell>
        <mxCell id="14J2bq57vGtZK2Nbp2-c-285" value="" style="edgeStyle=elbowEdgeStyle;elbow=horizontal;rounded=0;fontColor=#000000;endArrow=none;endFill=0;strokeWidth=8;strokeColor=#23445D;" parent="1" source="163" target="14J2bq57vGtZK2Nbp2-c-284" edge="1">
          <mxGeometry width="100" height="100" relative="1" as="geometry">
            <mxPoint x="2590" y="520" as="sourcePoint" />
            <mxPoint x="2650" y="360" as="targetPoint" />
            <Array as="points" />
          </mxGeometry>
        </mxCell>
        <mxCell id="14J2bq57vGtZK2Nbp2-c-286" value="選單：系統設定" style="whiteSpace=wrap;rounded=1;fillColor=#999999;strokeColor=none;shadow=1;fontColor=#FFFFFF;fontStyle=0" parent="1" vertex="1">
          <mxGeometry x="2459.9999999999995" y="720.0000000000002" width="120" height="60" as="geometry" />
        </mxCell>
        <mxCell id="14J2bq57vGtZK2Nbp2-c-287" value="顯示機台狀態" style="whiteSpace=wrap;rounded=1;fillColor=#999999;strokeColor=none;shadow=1;fontColor=#FFFFFF;fontStyle=0" parent="1" vertex="1">
          <mxGeometry x="2639.9999999999995" y="560.0000000000002" width="120" height="60" as="geometry" />
        </mxCell>
        <mxCell id="14J2bq57vGtZK2Nbp2-c-288" value="" style="edgeStyle=elbowEdgeStyle;elbow=horizontal;rounded=0;fontColor=#000000;endArrow=none;endFill=0;strokeWidth=8;strokeColor=#23445D;" parent="1" source="14J2bq57vGtZK2Nbp2-c-284" target="14J2bq57vGtZK2Nbp2-c-287" edge="1">
          <mxGeometry width="100" height="100" relative="1" as="geometry">
            <mxPoint x="2580" y="589.6" as="sourcePoint" />
            <mxPoint x="2640" y="589.6" as="targetPoint" />
            <Array as="points" />
          </mxGeometry>
        </mxCell>
        <mxCell id="14J2bq57vGtZK2Nbp2-c-291" value="排版給線軸狀態" style="whiteSpace=wrap;rounded=1;fillColor=#999999;strokeColor=none;shadow=1;fontColor=#FFFFFF;fontStyle=0" parent="1" vertex="1">
          <mxGeometry x="2819.9999999999995" y="800.0000000000002" width="120" height="60" as="geometry" />
        </mxCell>
        <mxCell id="14J2bq57vGtZK2Nbp2-c-292" value="" style="edgeStyle=elbowEdgeStyle;elbow=horizontal;rounded=0;fontColor=#000000;endArrow=none;endFill=0;strokeWidth=8;strokeColor=#23445D;exitX=1;exitY=0.5;exitDx=0;exitDy=0;" parent="1" source="14J2bq57vGtZK2Nbp2-c-270" target="14J2bq57vGtZK2Nbp2-c-291" edge="1">
          <mxGeometry width="100" height="100" relative="1" as="geometry">
            <mxPoint x="2770" y="600" as="sourcePoint" />
            <mxPoint x="2830" y="600" as="targetPoint" />
            <Array as="points" />
          </mxGeometry>
        </mxCell>
        <mxCell id="14J2bq57vGtZK2Nbp2-c-296" value="選擇目標機台&#xa;(to data manager -&gt; update api, core -&gt; analyzer update api)" style="whiteSpace=wrap;rounded=1;fillColor=#999999;strokeColor=none;shadow=1;fontColor=#FFFFFF;fontStyle=0" parent="1" vertex="1">
          <mxGeometry x="2639.9999999999995" y="720.0000000000002" width="120" height="60" as="geometry" />
        </mxCell>
        <mxCell id="14J2bq57vGtZK2Nbp2-c-297" value="" style="edgeStyle=elbowEdgeStyle;elbow=horizontal;rounded=0;fontColor=#000000;endArrow=none;endFill=0;strokeWidth=8;strokeColor=#23445D;" parent="1" source="163" target="14J2bq57vGtZK2Nbp2-c-286" edge="1">
          <mxGeometry width="100" height="100" relative="1" as="geometry">
            <mxPoint x="2410" y="520" as="sourcePoint" />
            <mxPoint x="2470" y="680" as="targetPoint" />
            <Array as="points" />
          </mxGeometry>
        </mxCell>
        <mxCell id="14J2bq57vGtZK2Nbp2-c-298" value="" style="edgeStyle=elbowEdgeStyle;elbow=horizontal;rounded=0;fontColor=#000000;endArrow=none;endFill=0;strokeWidth=8;strokeColor=#23445D;" parent="1" source="14J2bq57vGtZK2Nbp2-c-286" target="14J2bq57vGtZK2Nbp2-c-296" edge="1">
          <mxGeometry width="100" height="100" relative="1" as="geometry">
            <mxPoint x="2580" y="749.47" as="sourcePoint" />
            <mxPoint x="2640" y="749.47" as="targetPoint" />
            <Array as="points" />
          </mxGeometry>
        </mxCell>
        <mxCell id="14J2bq57vGtZK2Nbp2-c-299" value="設計備份設定/資料頁面" style="whiteSpace=wrap;rounded=1;fillColor=#999999;strokeColor=none;shadow=1;fontColor=#FFFFFF;fontStyle=0" parent="1" vertex="1">
          <mxGeometry x="2639.9999999999995" y="1040.0000000000002" width="120" height="60" as="geometry" />
        </mxCell>
        <mxCell id="14J2bq57vGtZK2Nbp2-c-300" value="" style="edgeStyle=elbowEdgeStyle;elbow=horizontal;rounded=0;fontColor=#000000;endArrow=none;endFill=0;strokeWidth=8;strokeColor=#23445D;" parent="1" source="14J2bq57vGtZK2Nbp2-c-286" target="14J2bq57vGtZK2Nbp2-c-299" edge="1">
          <mxGeometry width="100" height="100" relative="1" as="geometry">
            <mxPoint x="2590" y="760" as="sourcePoint" />
            <mxPoint x="2650" y="760" as="targetPoint" />
            <Array as="points" />
          </mxGeometry>
        </mxCell>
        <mxCell id="14J2bq57vGtZK2Nbp2-c-301" value="設計生產狀態更新" style="whiteSpace=wrap;rounded=1;fillColor=#999999;strokeColor=none;shadow=1;fontColor=#FFFFFF;fontStyle=0" parent="1" vertex="1">
          <mxGeometry x="2822.9999999999995" y="560.0000000000002" width="120" height="60" as="geometry" />
        </mxCell>
        <mxCell id="14J2bq57vGtZK2Nbp2-c-302" value="" style="edgeStyle=elbowEdgeStyle;elbow=horizontal;rounded=0;fontColor=#000000;endArrow=none;endFill=0;strokeWidth=8;strokeColor=#23445D;" parent="1" source="14J2bq57vGtZK2Nbp2-c-270" target="14J2bq57vGtZK2Nbp2-c-301" edge="1">
          <mxGeometry width="100" height="100" relative="1" as="geometry">
            <mxPoint x="2770" y="520" as="sourcePoint" />
            <mxPoint x="2830" y="440" as="targetPoint" />
            <Array as="points" />
          </mxGeometry>
        </mxCell>
        <mxCell id="14J2bq57vGtZK2Nbp2-c-303" value="設計給線軸準備區更新" style="whiteSpace=wrap;rounded=1;fillColor=#999999;strokeColor=none;shadow=1;fontColor=#FFFFFF;fontStyle=0" parent="1" vertex="1">
          <mxGeometry x="2822.9999999999995" y="880.0000000000002" width="120" height="60" as="geometry" />
        </mxCell>
        <mxCell id="14J2bq57vGtZK2Nbp2-c-304" value="" style="edgeStyle=elbowEdgeStyle;elbow=horizontal;rounded=0;fontColor=#000000;endArrow=none;endFill=0;strokeWidth=8;strokeColor=#23445D;" parent="1" source="14J2bq57vGtZK2Nbp2-c-270" target="14J2bq57vGtZK2Nbp2-c-303" edge="1">
          <mxGeometry width="100" height="100" relative="1" as="geometry">
            <mxPoint x="2770" y="520" as="sourcePoint" />
            <mxPoint x="2830" y="760" as="targetPoint" />
            <Array as="points">
              <mxPoint x="2790" y="670" />
            </Array>
          </mxGeometry>
        </mxCell>
        <mxCell id="14J2bq57vGtZK2Nbp2-c-306" value="" style="rounded=0;whiteSpace=wrap;html=1;dashed=1;fillColor=none;strokeColor=#FF0080;" parent="1" vertex="1">
          <mxGeometry x="1650" y="2240" width="580" height="340" as="geometry" />
        </mxCell>
        <mxCell id="14J2bq57vGtZK2Nbp2-c-308" value="設計update api" style="whiteSpace=wrap;rounded=1;fillColor=#999999;strokeColor=none;shadow=1;fontColor=#FFFFFF;fontStyle=0" parent="1" vertex="1">
          <mxGeometry x="2822.9999999999995" y="960.0000000000002" width="120" height="60" as="geometry" />
        </mxCell>
        <mxCell id="14J2bq57vGtZK2Nbp2-c-309" value="" style="edgeStyle=elbowEdgeStyle;elbow=horizontal;rounded=0;fontColor=#000000;endArrow=none;endFill=0;strokeWidth=8;strokeColor=#23445D;" parent="1" source="14J2bq57vGtZK2Nbp2-c-270" target="14J2bq57vGtZK2Nbp2-c-308" edge="1">
          <mxGeometry width="100" height="100" relative="1" as="geometry">
            <mxPoint x="2770" y="520" as="sourcePoint" />
            <mxPoint x="2833" y="920" as="targetPoint" />
            <Array as="points">
              <mxPoint x="2790" y="750" />
            </Array>
          </mxGeometry>
        </mxCell>
        <mxCell id="14J2bq57vGtZK2Nbp2-c-310" value="產生machine status update api" style="whiteSpace=wrap;rounded=1;fillColor=#999999;strokeColor=none;shadow=1;fontColor=#FFFFFF;fontStyle=0" parent="1" vertex="1">
          <mxGeometry x="2639.9999999999995" y="640.0000000000002" width="120" height="60" as="geometry" />
        </mxCell>
        <mxCell id="14J2bq57vGtZK2Nbp2-c-311" value="" style="edgeStyle=elbowEdgeStyle;elbow=horizontal;rounded=0;fontColor=#000000;endArrow=none;endFill=0;strokeWidth=8;strokeColor=#23445D;" parent="1" source="14J2bq57vGtZK2Nbp2-c-284" target="14J2bq57vGtZK2Nbp2-c-310" edge="1">
          <mxGeometry width="100" height="100" relative="1" as="geometry">
            <mxPoint x="2590" y="600" as="sourcePoint" />
            <mxPoint x="2650" y="600" as="targetPoint" />
            <Array as="points" />
          </mxGeometry>
        </mxCell>
        <mxCell id="14J2bq57vGtZK2Nbp2-c-316" value="讀取機台設定&lt;br&gt;(from data manage -&amp;gt; read api)" style="whiteSpace=wrap;html=1;fillColor=#999999;strokeColor=none;fontColor=#FFFFFF;rounded=1;shadow=1;fontStyle=0;" parent="1" vertex="1">
          <mxGeometry x="2270" y="1209.0000000000002" width="120" height="60" as="geometry" />
        </mxCell>
        <mxCell id="14J2bq57vGtZK2Nbp2-c-317" value="更新HMI畫面&lt;br&gt;(to hmi -&amp;gt; update api)" style="whiteSpace=wrap;html=1;fillColor=#999999;strokeColor=none;fontColor=#FFFFFF;rounded=1;shadow=1;fontStyle=0;" parent="1" vertex="1">
          <mxGeometry x="2270" y="1290.0000000000002" width="120" height="60" as="geometry" />
        </mxCell>
        <mxCell id="14J2bq57vGtZK2Nbp2-c-318" value="" style="edgeStyle=elbowEdgeStyle;elbow=horizontal;rounded=0;fontColor=#000000;endArrow=none;endFill=0;strokeWidth=8;strokeColor=#23445D;entryX=0;entryY=0.5;entryDx=0;entryDy=0;" parent="1" source="myqi20wE7shxtgtQEC9K-296" target="14J2bq57vGtZK2Nbp2-c-316" edge="1">
          <mxGeometry width="100" height="100" relative="1" as="geometry">
            <mxPoint x="2030" y="1170" as="sourcePoint" />
            <mxPoint x="2280" y="1170" as="targetPoint" />
            <Array as="points">
              <mxPoint x="2240" y="1210" />
            </Array>
          </mxGeometry>
        </mxCell>
        <mxCell id="14J2bq57vGtZK2Nbp2-c-319" value="" style="edgeStyle=elbowEdgeStyle;elbow=horizontal;rounded=0;fontColor=#000000;endArrow=none;endFill=0;strokeWidth=8;strokeColor=#23445D;" parent="1" source="myqi20wE7shxtgtQEC9K-296" target="14J2bq57vGtZK2Nbp2-c-317" edge="1">
          <mxGeometry width="100" height="100" relative="1" as="geometry">
            <mxPoint x="2030" y="1170" as="sourcePoint" />
            <mxPoint x="2280" y="1220" as="targetPoint" />
            <Array as="points">
              <mxPoint x="2240" y="1240" />
            </Array>
          </mxGeometry>
        </mxCell>
        <mxCell id="14J2bq57vGtZK2Nbp2-c-321" value="設計更新分析設定api" style="whiteSpace=wrap;html=1;fillColor=#999999;strokeColor=none;fontColor=#FFFFFF;rounded=1;shadow=1;fontStyle=0;" parent="1" vertex="1">
          <mxGeometry x="2270" y="1370.0000000000002" width="120" height="60" as="geometry" />
        </mxCell>
        <mxCell id="14J2bq57vGtZK2Nbp2-c-322" value="" style="edgeStyle=elbowEdgeStyle;elbow=horizontal;rounded=0;fontColor=#000000;endArrow=none;endFill=0;strokeWidth=8;strokeColor=#23445D;" parent="1" source="myqi20wE7shxtgtQEC9K-296" target="14J2bq57vGtZK2Nbp2-c-321" edge="1">
          <mxGeometry width="100" height="100" relative="1" as="geometry">
            <mxPoint x="2030" y="1170" as="sourcePoint" />
            <mxPoint x="2280" y="1330" as="targetPoint" />
            <Array as="points">
              <mxPoint x="2240" y="1290" />
            </Array>
          </mxGeometry>
        </mxCell>
        <mxCell id="14J2bq57vGtZK2Nbp2-c-324" value="" style="rounded=0;whiteSpace=wrap;html=1;dashed=1;fillColor=none;strokeColor=#FF0080;" parent="1" vertex="1">
          <mxGeometry x="1470" y="1269" width="180" height="161" as="geometry" />
        </mxCell>
        <mxCell id="14J2bq57vGtZK2Nbp2-c-325" value="排版頁面" style="whiteSpace=wrap;rounded=1;fillColor=#999999;strokeColor=none;shadow=1;fontColor=#FFFFFF;fontStyle=0" parent="1" vertex="1">
          <mxGeometry x="2822.9999999999995" y="1040.0000000000002" width="120" height="60" as="geometry" />
        </mxCell>
        <mxCell id="14J2bq57vGtZK2Nbp2-c-326" value="設計匯出系統設定" style="whiteSpace=wrap;rounded=1;fillColor=#999999;strokeColor=none;shadow=1;fontColor=#FFFFFF;fontStyle=0" parent="1" vertex="1">
          <mxGeometry x="2819.9999999999995" y="1120.0000000000002" width="120" height="60" as="geometry" />
        </mxCell>
        <mxCell id="14J2bq57vGtZK2Nbp2-c-327" value="設計匯入系統設定" style="whiteSpace=wrap;rounded=1;fillColor=#999999;strokeColor=none;shadow=1;fontColor=#FFFFFF;fontStyle=0" parent="1" vertex="1">
          <mxGeometry x="2822.9999999999995" y="1200.0000000000002" width="120" height="60" as="geometry" />
        </mxCell>
        <mxCell id="14J2bq57vGtZK2Nbp2-c-328" value="設計定期備份" style="whiteSpace=wrap;rounded=1;fillColor=#999999;strokeColor=none;shadow=1;fontColor=#FFFFFF;fontStyle=0" parent="1" vertex="1">
          <mxGeometry x="2822.9999999999995" y="1280.0000000000002" width="120" height="60" as="geometry" />
        </mxCell>
        <mxCell id="14J2bq57vGtZK2Nbp2-c-330" value="" style="edgeStyle=elbowEdgeStyle;elbow=horizontal;rounded=0;fontColor=#000000;endArrow=none;endFill=0;strokeWidth=8;strokeColor=#23445D;" parent="1" source="14J2bq57vGtZK2Nbp2-c-299" target="14J2bq57vGtZK2Nbp2-c-325" edge="1">
          <mxGeometry width="100" height="100" relative="1" as="geometry">
            <mxPoint x="2770" y="520" as="sourcePoint" />
            <mxPoint x="2833" y="1000" as="targetPoint" />
            <Array as="points">
              <mxPoint x="2790" y="1070" />
            </Array>
          </mxGeometry>
        </mxCell>
        <mxCell id="14J2bq57vGtZK2Nbp2-c-331" value="" style="edgeStyle=elbowEdgeStyle;elbow=horizontal;rounded=0;fontColor=#000000;endArrow=none;endFill=0;strokeWidth=8;strokeColor=#23445D;" parent="1" target="14J2bq57vGtZK2Nbp2-c-326" edge="1">
          <mxGeometry width="100" height="100" relative="1" as="geometry">
            <mxPoint x="2760" y="1070" as="sourcePoint" />
            <mxPoint x="2833" y="1080" as="targetPoint" />
            <Array as="points">
              <mxPoint x="2800" y="1080" />
            </Array>
          </mxGeometry>
        </mxCell>
        <mxCell id="14J2bq57vGtZK2Nbp2-c-332" value="" style="edgeStyle=elbowEdgeStyle;elbow=horizontal;rounded=0;fontColor=#000000;endArrow=none;endFill=0;strokeWidth=8;strokeColor=#23445D;exitX=1;exitY=0.5;exitDx=0;exitDy=0;" parent="1" source="14J2bq57vGtZK2Nbp2-c-299" target="14J2bq57vGtZK2Nbp2-c-327" edge="1">
          <mxGeometry width="100" height="100" relative="1" as="geometry">
            <mxPoint x="2770" y="1080" as="sourcePoint" />
            <mxPoint x="2830" y="1160" as="targetPoint" />
            <Array as="points">
              <mxPoint x="2800" y="1160" />
            </Array>
          </mxGeometry>
        </mxCell>
        <mxCell id="14J2bq57vGtZK2Nbp2-c-333" value="" style="edgeStyle=elbowEdgeStyle;elbow=horizontal;rounded=0;fontColor=#000000;endArrow=none;endFill=0;strokeWidth=8;strokeColor=#23445D;exitX=1;exitY=0.5;exitDx=0;exitDy=0;" parent="1" source="14J2bq57vGtZK2Nbp2-c-299" target="14J2bq57vGtZK2Nbp2-c-328" edge="1">
          <mxGeometry width="100" height="100" relative="1" as="geometry">
            <mxPoint x="2770" y="1080" as="sourcePoint" />
            <mxPoint x="2833" y="1240" as="targetPoint" />
            <Array as="points">
              <mxPoint x="2800" y="1200" />
            </Array>
          </mxGeometry>
        </mxCell>
        <mxCell id="14J2bq57vGtZK2Nbp2-c-334" value="選單：同步設定" style="whiteSpace=wrap;rounded=1;fillColor=#999999;strokeColor=none;shadow=1;fontColor=#FFFFFF;fontStyle=0" parent="1" vertex="1">
          <mxGeometry x="2459.9999999999995" y="1360.0000000000002" width="120" height="60" as="geometry" />
        </mxCell>
        <mxCell id="14J2bq57vGtZK2Nbp2-c-335" value="" style="edgeStyle=elbowEdgeStyle;elbow=horizontal;rounded=0;fontColor=#000000;endArrow=none;endFill=0;strokeWidth=8;strokeColor=#23445D;" parent="1" source="163" target="14J2bq57vGtZK2Nbp2-c-334" edge="1">
          <mxGeometry width="100" height="100" relative="1" as="geometry">
            <mxPoint x="2410" y="520" as="sourcePoint" />
            <mxPoint x="2470" y="760" as="targetPoint" />
            <Array as="points" />
          </mxGeometry>
        </mxCell>
        <mxCell id="14J2bq57vGtZK2Nbp2-c-336" value="設計同步來源" style="whiteSpace=wrap;rounded=1;fillColor=#999999;strokeColor=none;shadow=1;fontColor=#FFFFFF;fontStyle=0" parent="1" vertex="1">
          <mxGeometry x="2639.9999999999995" y="1360.0000000000002" width="120" height="60" as="geometry" />
        </mxCell>
        <mxCell id="14J2bq57vGtZK2Nbp2-c-337" value="" style="edgeStyle=elbowEdgeStyle;elbow=horizontal;rounded=0;fontColor=#000000;endArrow=none;endFill=0;strokeWidth=8;strokeColor=#23445D;" parent="1" source="14J2bq57vGtZK2Nbp2-c-334" target="14J2bq57vGtZK2Nbp2-c-336" edge="1">
          <mxGeometry width="100" height="100" relative="1" as="geometry">
            <mxPoint x="2580" y="1389.23" as="sourcePoint" />
            <mxPoint x="2640" y="1389.23" as="targetPoint" />
            <Array as="points" />
          </mxGeometry>
        </mxCell>
        <mxCell id="14J2bq57vGtZK2Nbp2-c-338" value="設計手動同步功能" style="whiteSpace=wrap;rounded=1;fillColor=#999999;strokeColor=none;shadow=1;fontColor=#FFFFFF;fontStyle=0" parent="1" vertex="1">
          <mxGeometry x="2639.9999999999995" y="1440.0000000000002" width="120" height="60" as="geometry" />
        </mxCell>
        <mxCell id="14J2bq57vGtZK2Nbp2-c-339" value="" style="edgeStyle=elbowEdgeStyle;elbow=horizontal;rounded=0;fontColor=#000000;endArrow=none;endFill=0;strokeWidth=8;strokeColor=#23445D;" parent="1" source="14J2bq57vGtZK2Nbp2-c-334" target="14J2bq57vGtZK2Nbp2-c-338" edge="1">
          <mxGeometry width="100" height="100" relative="1" as="geometry">
            <mxPoint x="2590" y="1400" as="sourcePoint" />
            <mxPoint x="2650" y="1400" as="targetPoint" />
            <Array as="points" />
          </mxGeometry>
        </mxCell>
        <mxCell id="14J2bq57vGtZK2Nbp2-c-340" value="data manager" style="whiteSpace=wrap;rounded=1;fillColor=#12AAB5;strokeColor=none;shadow=1;fontColor=#FFFFFF;" parent="1" vertex="1">
          <mxGeometry x="3010" y="300.0000000000002" width="120" height="60" as="geometry" />
        </mxCell>
        <mxCell id="14J2bq57vGtZK2Nbp2-c-341" value="" style="edgeStyle=elbowEdgeStyle;elbow=vertical;rounded=0;fontColor=#000000;endArrow=none;endFill=0;strokeWidth=8;strokeColor=#23445D;" parent="1" source="7" target="14J2bq57vGtZK2Nbp2-c-340" edge="1">
          <mxGeometry width="100" height="100" relative="1" as="geometry">
            <mxPoint x="1350" y="240" as="sourcePoint" />
            <mxPoint x="2350" y="310" as="targetPoint" />
          </mxGeometry>
        </mxCell>
        <mxCell id="14J2bq57vGtZK2Nbp2-c-342" value="設計資料表" style="whiteSpace=wrap;rounded=1;fillColor=#999999;strokeColor=none;shadow=1;fontColor=#FFFFFF;fontStyle=0" parent="1" vertex="1">
          <mxGeometry x="3009.999999999999" y="400.0000000000002" width="120" height="60" as="geometry" />
        </mxCell>
        <mxCell id="14J2bq57vGtZK2Nbp2-c-343" value="設計api" style="whiteSpace=wrap;rounded=1;fillColor=#999999;strokeColor=none;shadow=1;fontColor=#FFFFFF;fontStyle=0" parent="1" vertex="1">
          <mxGeometry x="3009.9999999999995" y="480.0000000000002" width="120" height="60" as="geometry" />
        </mxCell>
        <mxCell id="14J2bq57vGtZK2Nbp2-c-344" value="" style="edgeStyle=elbowEdgeStyle;elbow=horizontal;rounded=0;fontColor=#000000;endArrow=none;endFill=0;strokeWidth=8;strokeColor=#23445D;" parent="1" source="14J2bq57vGtZK2Nbp2-c-340" target="14J2bq57vGtZK2Nbp2-c-342" edge="1">
          <mxGeometry width="100" height="100" relative="1" as="geometry">
            <mxPoint x="3010" y="330" as="sourcePoint" />
            <mxPoint x="2989.9999999999995" y="430.0000000000001" as="targetPoint" />
            <Array as="points">
              <mxPoint x="2990" y="380.0000000000001" />
            </Array>
          </mxGeometry>
        </mxCell>
        <mxCell id="14J2bq57vGtZK2Nbp2-c-345" value="" style="edgeStyle=elbowEdgeStyle;elbow=horizontal;rounded=0;fontColor=#000000;endArrow=none;endFill=0;strokeWidth=8;strokeColor=#23445D;" parent="1" source="14J2bq57vGtZK2Nbp2-c-340" target="14J2bq57vGtZK2Nbp2-c-343" edge="1">
          <mxGeometry width="100" height="100" relative="1" as="geometry">
            <mxPoint x="3010" y="330" as="sourcePoint" />
            <mxPoint x="2990" y="510.0000000000001" as="targetPoint" />
            <Array as="points">
              <mxPoint x="2990" y="420.0000000000001" />
            </Array>
          </mxGeometry>
        </mxCell>
        <mxCell id="14J2bq57vGtZK2Nbp2-c-347" value="設計write api" style="whiteSpace=wrap;rounded=1;fillColor=#999999;strokeColor=none;shadow=1;fontColor=#FFFFFF;fontStyle=0" parent="1" vertex="1">
          <mxGeometry x="3189.9999999999995" y="480.0000000000002" width="120" height="60" as="geometry" />
        </mxCell>
        <mxCell id="14J2bq57vGtZK2Nbp2-c-348" value="" style="edgeStyle=elbowEdgeStyle;elbow=horizontal;rounded=0;fontColor=#000000;endArrow=none;endFill=0;strokeWidth=8;strokeColor=#23445D;" parent="1" source="14J2bq57vGtZK2Nbp2-c-343" target="14J2bq57vGtZK2Nbp2-c-347" edge="1">
          <mxGeometry width="100" height="100" relative="1" as="geometry">
            <mxPoint x="3130" y="509.57" as="sourcePoint" />
            <mxPoint x="3190" y="509.57" as="targetPoint" />
            <Array as="points" />
          </mxGeometry>
        </mxCell>
        <mxCell id="14J2bq57vGtZK2Nbp2-c-349" value="設計read api" style="whiteSpace=wrap;rounded=1;fillColor=#999999;strokeColor=none;shadow=1;fontColor=#FFFFFF;fontStyle=0" parent="1" vertex="1">
          <mxGeometry x="3189.9999999999995" y="560.0000000000002" width="120" height="60" as="geometry" />
        </mxCell>
        <mxCell id="14J2bq57vGtZK2Nbp2-c-350" value="設計update api" style="whiteSpace=wrap;rounded=1;fillColor=#999999;strokeColor=none;shadow=1;fontColor=#FFFFFF;fontStyle=0" parent="1" vertex="1">
          <mxGeometry x="3189.9999999999995" y="640.0000000000002" width="120" height="60" as="geometry" />
        </mxCell>
        <mxCell id="14J2bq57vGtZK2Nbp2-c-351" value="設計delete api" style="whiteSpace=wrap;rounded=1;fillColor=#999999;strokeColor=none;shadow=1;fontColor=#FFFFFF;fontStyle=0" parent="1" vertex="1">
          <mxGeometry x="3189.9999999999995" y="720.0000000000002" width="120" height="60" as="geometry" />
        </mxCell>
        <mxCell id="14J2bq57vGtZK2Nbp2-c-352" value="設計backup api" style="whiteSpace=wrap;rounded=1;fillColor=#999999;strokeColor=none;shadow=1;fontColor=#FFFFFF;fontStyle=0" parent="1" vertex="1">
          <mxGeometry x="3189.9999999999995" y="800.0000000000002" width="120" height="60" as="geometry" />
        </mxCell>
        <mxCell id="14J2bq57vGtZK2Nbp2-c-353" value="設計restore api" style="whiteSpace=wrap;rounded=1;fillColor=#999999;strokeColor=none;shadow=1;fontColor=#FFFFFF;fontStyle=0" parent="1" vertex="1">
          <mxGeometry x="3189.9999999999995" y="880.0000000000002" width="120" height="60" as="geometry" />
        </mxCell>
        <mxCell id="14J2bq57vGtZK2Nbp2-c-354" value="" style="edgeStyle=elbowEdgeStyle;elbow=horizontal;rounded=0;fontColor=#000000;endArrow=none;endFill=0;strokeWidth=8;strokeColor=#23445D;" parent="1" source="14J2bq57vGtZK2Nbp2-c-343" target="14J2bq57vGtZK2Nbp2-c-349" edge="1">
          <mxGeometry width="100" height="100" relative="1" as="geometry">
            <mxPoint x="3140" y="520" as="sourcePoint" />
            <mxPoint x="3200" y="520" as="targetPoint" />
            <Array as="points" />
          </mxGeometry>
        </mxCell>
        <mxCell id="14J2bq57vGtZK2Nbp2-c-355" value="" style="edgeStyle=elbowEdgeStyle;elbow=horizontal;rounded=0;fontColor=#000000;endArrow=none;endFill=0;strokeWidth=8;strokeColor=#23445D;" parent="1" source="14J2bq57vGtZK2Nbp2-c-343" target="14J2bq57vGtZK2Nbp2-c-350" edge="1">
          <mxGeometry width="100" height="100" relative="1" as="geometry">
            <mxPoint x="3140" y="520" as="sourcePoint" />
            <mxPoint x="3200" y="600" as="targetPoint" />
            <Array as="points" />
          </mxGeometry>
        </mxCell>
        <mxCell id="14J2bq57vGtZK2Nbp2-c-356" value="" style="edgeStyle=elbowEdgeStyle;elbow=horizontal;rounded=0;fontColor=#000000;endArrow=none;endFill=0;strokeWidth=8;strokeColor=#23445D;" parent="1" source="14J2bq57vGtZK2Nbp2-c-343" target="14J2bq57vGtZK2Nbp2-c-351" edge="1">
          <mxGeometry width="100" height="100" relative="1" as="geometry">
            <mxPoint x="3150" y="530" as="sourcePoint" />
            <mxPoint x="3210" y="610" as="targetPoint" />
            <Array as="points" />
          </mxGeometry>
        </mxCell>
        <mxCell id="14J2bq57vGtZK2Nbp2-c-357" value="" style="edgeStyle=elbowEdgeStyle;elbow=horizontal;rounded=0;fontColor=#000000;endArrow=none;endFill=0;strokeWidth=8;strokeColor=#23445D;" parent="1" source="14J2bq57vGtZK2Nbp2-c-343" target="14J2bq57vGtZK2Nbp2-c-352" edge="1">
          <mxGeometry width="100" height="100" relative="1" as="geometry">
            <mxPoint x="3160" y="540" as="sourcePoint" />
            <mxPoint x="3220" y="620" as="targetPoint" />
            <Array as="points" />
          </mxGeometry>
        </mxCell>
        <mxCell id="14J2bq57vGtZK2Nbp2-c-358" value="" style="edgeStyle=elbowEdgeStyle;elbow=horizontal;rounded=0;fontColor=#000000;endArrow=none;endFill=0;strokeWidth=8;strokeColor=#23445D;" parent="1" source="14J2bq57vGtZK2Nbp2-c-343" target="14J2bq57vGtZK2Nbp2-c-353" edge="1">
          <mxGeometry width="100" height="100" relative="1" as="geometry">
            <mxPoint x="3170" y="550" as="sourcePoint" />
            <mxPoint x="3230" y="630" as="targetPoint" />
            <Array as="points" />
          </mxGeometry>
        </mxCell>
        <mxCell id="14J2bq57vGtZK2Nbp2-c-359" value="選單：報表" style="whiteSpace=wrap;rounded=1;fillColor=#999999;strokeColor=none;shadow=1;fontColor=#FFFFFF;fontStyle=0" parent="1" vertex="1">
          <mxGeometry x="2459.9999999999995" y="1520.0000000000002" width="120" height="60" as="geometry" />
        </mxCell>
        <mxCell id="14J2bq57vGtZK2Nbp2-c-360" value="排版報表產生功能" style="whiteSpace=wrap;rounded=1;fillColor=#999999;strokeColor=none;shadow=1;fontColor=#FFFFFF;fontStyle=0" parent="1" vertex="1">
          <mxGeometry x="2639.9999999999995" y="1520.0000000000002" width="120" height="60" as="geometry" />
        </mxCell>
        <mxCell id="14J2bq57vGtZK2Nbp2-c-361" value="" style="edgeStyle=elbowEdgeStyle;elbow=horizontal;rounded=0;fontColor=#000000;endArrow=none;endFill=0;strokeWidth=8;strokeColor=#23445D;" parent="1" source="14J2bq57vGtZK2Nbp2-c-359" target="14J2bq57vGtZK2Nbp2-c-360" edge="1">
          <mxGeometry width="100" height="100" relative="1" as="geometry">
            <mxPoint x="2590" y="1400" as="sourcePoint" />
            <mxPoint x="2650" y="1480" as="targetPoint" />
            <Array as="points" />
          </mxGeometry>
        </mxCell>
        <mxCell id="14J2bq57vGtZK2Nbp2-c-362" value="" style="edgeStyle=elbowEdgeStyle;elbow=horizontal;rounded=0;fontColor=#000000;endArrow=none;endFill=0;strokeWidth=8;strokeColor=#23445D;" parent="1" source="163" target="14J2bq57vGtZK2Nbp2-c-359" edge="1">
          <mxGeometry width="100" height="100" relative="1" as="geometry">
            <mxPoint x="2410" y="520" as="sourcePoint" />
            <mxPoint x="2470" y="1400" as="targetPoint" />
            <Array as="points" />
          </mxGeometry>
        </mxCell>
        <mxCell id="14J2bq57vGtZK2Nbp2-c-363" value="讀取報表資料&#xa;(from data manager&#xa; -&gt; read api)" style="whiteSpace=wrap;rounded=1;fillColor=#999999;strokeColor=none;shadow=1;fontColor=#FFFFFF;fontStyle=0" parent="1" vertex="1">
          <mxGeometry x="2639.9999999999995" y="1600.0000000000002" width="120" height="60" as="geometry" />
        </mxCell>
        <mxCell id="14J2bq57vGtZK2Nbp2-c-364" value="" style="edgeStyle=elbowEdgeStyle;elbow=horizontal;rounded=0;fontColor=#000000;endArrow=none;endFill=0;strokeWidth=8;strokeColor=#23445D;" parent="1" source="14J2bq57vGtZK2Nbp2-c-359" target="14J2bq57vGtZK2Nbp2-c-363" edge="1">
          <mxGeometry width="100" height="100" relative="1" as="geometry">
            <mxPoint x="2590" y="1560" as="sourcePoint" />
            <mxPoint x="2650" y="1560" as="targetPoint" />
            <Array as="points" />
          </mxGeometry>
        </mxCell>
        <mxCell id="14J2bq57vGtZK2Nbp2-c-365" value="設計整合性存取" style="whiteSpace=wrap;rounded=1;fillColor=#999999;strokeColor=none;shadow=1;fontColor=#FFFFFF;fontStyle=0" parent="1" vertex="1">
          <mxGeometry x="3009.9999999999995" y="960.0000000000002" width="120" height="60" as="geometry" />
        </mxCell>
        <mxCell id="14J2bq57vGtZK2Nbp2-c-366" value="設計多資料表查詢api" style="whiteSpace=wrap;rounded=1;fillColor=#999999;strokeColor=none;shadow=1;fontColor=#FFFFFF;fontStyle=0" parent="1" vertex="1">
          <mxGeometry x="3189.9999999999995" y="960.0000000000002" width="120" height="60" as="geometry" />
        </mxCell>
        <mxCell id="14J2bq57vGtZK2Nbp2-c-367" value="" style="edgeStyle=elbowEdgeStyle;elbow=horizontal;rounded=0;fontColor=#000000;endArrow=none;endFill=0;strokeWidth=8;strokeColor=#23445D;" parent="1" source="14J2bq57vGtZK2Nbp2-c-340" target="14J2bq57vGtZK2Nbp2-c-365" edge="1">
          <mxGeometry width="100" height="100" relative="1" as="geometry">
            <mxPoint x="3020" y="340" as="sourcePoint" />
            <mxPoint x="3020" y="520" as="targetPoint" />
            <Array as="points">
              <mxPoint x="2990" y="660" />
            </Array>
          </mxGeometry>
        </mxCell>
        <mxCell id="14J2bq57vGtZK2Nbp2-c-368" value="" style="edgeStyle=elbowEdgeStyle;elbow=horizontal;rounded=0;fontColor=#000000;endArrow=none;endFill=0;strokeWidth=8;strokeColor=#23445D;" parent="1" source="14J2bq57vGtZK2Nbp2-c-365" target="14J2bq57vGtZK2Nbp2-c-366" edge="1">
          <mxGeometry width="100" height="100" relative="1" as="geometry">
            <mxPoint x="3130" y="989.5699999999999" as="sourcePoint" />
            <mxPoint x="3190" y="989.5699999999999" as="targetPoint" />
            <Array as="points" />
          </mxGeometry>
        </mxCell>
        <mxCell id="14J2bq57vGtZK2Nbp2-c-369" value="設計報表輸出api" style="whiteSpace=wrap;rounded=1;fillColor=#999999;strokeColor=none;shadow=1;fontColor=#FFFFFF;fontStyle=0" parent="1" vertex="1">
          <mxGeometry x="3189.9999999999995" y="1040.0000000000002" width="120" height="60" as="geometry" />
        </mxCell>
        <mxCell id="14J2bq57vGtZK2Nbp2-c-371" value="" style="edgeStyle=elbowEdgeStyle;elbow=horizontal;rounded=0;fontColor=#000000;endArrow=none;endFill=0;strokeWidth=8;strokeColor=#23445D;" parent="1" source="14J2bq57vGtZK2Nbp2-c-365" target="14J2bq57vGtZK2Nbp2-c-369" edge="1">
          <mxGeometry width="100" height="100" relative="1" as="geometry">
            <mxPoint x="3140" y="1000" as="sourcePoint" />
            <mxPoint x="3200" y="1000" as="targetPoint" />
            <Array as="points" />
          </mxGeometry>
        </mxCell>
        <mxCell id="14J2bq57vGtZK2Nbp2-c-374" value="產生架裝tag安裝解說圖" style="whiteSpace=wrap;rounded=1;fillColor=#999999;strokeColor=none;shadow=1;fontColor=#FFFFFF;fontStyle=0" parent="1" vertex="1">
          <mxGeometry x="3640" y="799.9999999999999" width="120" height="60" as="geometry" />
        </mxCell>
        <mxCell id="14J2bq57vGtZK2Nbp2-c-375" value="產生軸tag安裝解說圖" style="whiteSpace=wrap;rounded=1;fillColor=#999999;strokeColor=none;shadow=1;fontColor=#FFFFFF;fontStyle=0" parent="1" vertex="1">
          <mxGeometry x="3640" y="879.9999999999999" width="120" height="60" as="geometry" />
        </mxCell>
        <mxCell id="14J2bq57vGtZK2Nbp2-c-376" value="" style="edgeStyle=elbowEdgeStyle;elbow=horizontal;rounded=0;fontColor=#000000;endArrow=none;endFill=0;strokeWidth=8;strokeColor=#23445D;" parent="1" source="177" target="14J2bq57vGtZK2Nbp2-c-374" edge="1">
          <mxGeometry width="100" height="100" relative="1" as="geometry">
            <mxPoint x="3650" y="340" as="sourcePoint" />
            <mxPoint x="3650" y="760" as="targetPoint" />
            <Array as="points">
              <mxPoint x="3620" y="590" />
            </Array>
          </mxGeometry>
        </mxCell>
        <mxCell id="14J2bq57vGtZK2Nbp2-c-377" value="" style="edgeStyle=elbowEdgeStyle;elbow=horizontal;rounded=0;fontColor=#000000;endArrow=none;endFill=0;strokeWidth=8;strokeColor=#23445D;" parent="1" source="177" target="14J2bq57vGtZK2Nbp2-c-375" edge="1">
          <mxGeometry width="100" height="100" relative="1" as="geometry">
            <mxPoint x="3650" y="340" as="sourcePoint" />
            <mxPoint x="3650" y="840" as="targetPoint" />
            <Array as="points">
              <mxPoint x="3620" y="630" />
            </Array>
          </mxGeometry>
        </mxCell>
        <mxCell id="14J2bq57vGtZK2Nbp2-c-379" value="安裝readers" style="whiteSpace=wrap;rounded=1;fillColor=#999999;strokeColor=none;shadow=1;fontColor=#FFFFFF;fontStyle=0" parent="1" vertex="1">
          <mxGeometry x="4060" y="639.9999999999999" width="120" height="60" as="geometry" />
        </mxCell>
        <mxCell id="14J2bq57vGtZK2Nbp2-c-380" value="產生施工平面圖" style="whiteSpace=wrap;rounded=1;fillColor=#999999;strokeColor=none;shadow=1;fontColor=#FFFFFF;fontStyle=0" parent="1" vertex="1">
          <mxGeometry x="3839.999999999999" y="399.9999999999999" width="120" height="60" as="geometry" />
        </mxCell>
        <mxCell id="14J2bq57vGtZK2Nbp2-c-381" value="" style="edgeStyle=elbowEdgeStyle;elbow=horizontal;rounded=0;fontColor=#000000;endArrow=none;endFill=0;strokeWidth=8;strokeColor=#23445D;" parent="1" source="178" target="14J2bq57vGtZK2Nbp2-c-380" edge="1">
          <mxGeometry width="100" height="100" relative="1" as="geometry">
            <mxPoint x="3850" y="340" as="sourcePoint" />
            <mxPoint x="3850" y="520" as="targetPoint" />
            <Array as="points">
              <mxPoint x="3820" y="390" />
            </Array>
          </mxGeometry>
        </mxCell>
        <mxCell id="14J2bq57vGtZK2Nbp2-c-382" value="產生安裝作業圖" style="whiteSpace=wrap;rounded=1;fillColor=#999999;strokeColor=none;shadow=1;fontColor=#FFFFFF;fontStyle=0" parent="1" vertex="1">
          <mxGeometry x="3839.999999999999" y="479.9999999999999" width="120" height="60" as="geometry" />
        </mxCell>
        <mxCell id="14J2bq57vGtZK2Nbp2-c-383" value="" style="edgeStyle=elbowEdgeStyle;elbow=horizontal;rounded=0;fontColor=#000000;endArrow=none;endFill=0;strokeWidth=8;strokeColor=#23445D;" parent="1" source="178" target="14J2bq57vGtZK2Nbp2-c-382" edge="1">
          <mxGeometry width="100" height="100" relative="1" as="geometry">
            <mxPoint x="3850" y="340" as="sourcePoint" />
            <mxPoint x="3850" y="440" as="targetPoint" />
            <Array as="points">
              <mxPoint x="3820" y="420" />
            </Array>
          </mxGeometry>
        </mxCell>
        <mxCell id="14J2bq57vGtZK2Nbp2-c-384" value="" style="edgeStyle=elbowEdgeStyle;elbow=horizontal;rounded=0;fontColor=#000000;endArrow=none;endFill=0;strokeWidth=8;strokeColor=#23445D;exitX=1;exitY=0.5;exitDx=0;exitDy=0;" parent="1" source="184" target="14J2bq57vGtZK2Nbp2-c-379" edge="1">
          <mxGeometry width="100" height="100" relative="1" as="geometry">
            <mxPoint x="3970" y="600" as="sourcePoint" />
            <mxPoint x="4070" y="600" as="targetPoint" />
            <Array as="points">
              <mxPoint x="4010" y="600" />
            </Array>
          </mxGeometry>
        </mxCell>
        <mxCell id="14J2bq57vGtZK2Nbp2-c-386" value="安裝天線" style="whiteSpace=wrap;rounded=1;fillColor=#999999;strokeColor=none;shadow=1;fontColor=#FFFFFF;fontStyle=0" parent="1" vertex="1">
          <mxGeometry x="4060" y="719.9999999999999" width="120" height="60" as="geometry" />
        </mxCell>
        <mxCell id="14J2bq57vGtZK2Nbp2-c-387" value="" style="edgeStyle=elbowEdgeStyle;elbow=horizontal;rounded=0;fontColor=#000000;endArrow=none;endFill=0;strokeWidth=8;strokeColor=#23445D;exitX=1;exitY=0.5;exitDx=0;exitDy=0;entryX=0;entryY=0.5;entryDx=0;entryDy=0;" parent="1" source="184" target="14J2bq57vGtZK2Nbp2-c-386" edge="1">
          <mxGeometry width="100" height="100" relative="1" as="geometry">
            <mxPoint x="3970" y="600" as="sourcePoint" />
            <mxPoint x="4070" y="680" as="targetPoint" />
            <Array as="points">
              <mxPoint x="4010" y="680" />
            </Array>
          </mxGeometry>
        </mxCell>
        <mxCell id="14J2bq57vGtZK2Nbp2-c-388" value="產生MHI安裝解說圖" style="whiteSpace=wrap;rounded=1;fillColor=#999999;strokeColor=none;shadow=1;fontColor=#FFFFFF;fontStyle=0" parent="1" vertex="1">
          <mxGeometry x="4060" y="319.9999999999999" width="120" height="60" as="geometry" />
        </mxCell>
        <mxCell id="14J2bq57vGtZK2Nbp2-c-389" value="" style="edgeStyle=elbowEdgeStyle;elbow=horizontal;rounded=0;fontColor=#000000;endArrow=none;endFill=0;strokeWidth=8;strokeColor=#23445D;exitX=1;exitY=0.5;exitDx=0;exitDy=0;" parent="1" source="14J2bq57vGtZK2Nbp2-c-382" target="14J2bq57vGtZK2Nbp2-c-388" edge="1">
          <mxGeometry width="100" height="100" relative="1" as="geometry">
            <mxPoint x="3960" y="350" as="sourcePoint" />
            <mxPoint x="3810" y="429.9999999999998" as="targetPoint" />
            <Array as="points">
              <mxPoint x="4010" y="420" />
            </Array>
          </mxGeometry>
        </mxCell>
        <mxCell id="14J2bq57vGtZK2Nbp2-c-390" value="產生reader安裝解說圖" style="whiteSpace=wrap;rounded=1;fillColor=#999999;strokeColor=none;shadow=1;fontColor=#FFFFFF;fontStyle=0" parent="1" vertex="1">
          <mxGeometry x="4060" y="399.9999999999999" width="120" height="60" as="geometry" />
        </mxCell>
        <mxCell id="14J2bq57vGtZK2Nbp2-c-391" value="" style="edgeStyle=elbowEdgeStyle;elbow=horizontal;rounded=0;fontColor=#000000;endArrow=none;endFill=0;strokeWidth=8;strokeColor=#23445D;exitX=1;exitY=0.5;exitDx=0;exitDy=0;" parent="1" source="14J2bq57vGtZK2Nbp2-c-382" target="14J2bq57vGtZK2Nbp2-c-390" edge="1">
          <mxGeometry width="100" height="100" relative="1" as="geometry">
            <mxPoint x="3960" y="350" as="sourcePoint" />
            <mxPoint x="4070" y="360" as="targetPoint" />
            <Array as="points">
              <mxPoint x="4010" y="500" />
            </Array>
          </mxGeometry>
        </mxCell>
        <mxCell id="14J2bq57vGtZK2Nbp2-c-392" value="產生天線安裝解說圖" style="whiteSpace=wrap;rounded=1;fillColor=#999999;strokeColor=none;shadow=1;fontColor=#FFFFFF;fontStyle=0" parent="1" vertex="1">
          <mxGeometry x="4060" y="479.9999999999999" width="120" height="60" as="geometry" />
        </mxCell>
        <mxCell id="14J2bq57vGtZK2Nbp2-c-393" value="" style="edgeStyle=elbowEdgeStyle;elbow=horizontal;rounded=0;fontColor=#000000;endArrow=none;endFill=0;strokeWidth=8;strokeColor=#23445D;exitX=1;exitY=0.5;exitDx=0;exitDy=0;entryX=0;entryY=0.5;entryDx=0;entryDy=0;" parent="1" source="14J2bq57vGtZK2Nbp2-c-382" target="14J2bq57vGtZK2Nbp2-c-392" edge="1">
          <mxGeometry width="100" height="100" relative="1" as="geometry">
            <mxPoint x="3960" y="350" as="sourcePoint" />
            <mxPoint x="4070" y="440" as="targetPoint" />
            <Array as="points">
              <mxPoint x="4010" y="510" />
            </Array>
          </mxGeometry>
        </mxCell>
        <mxCell id="14J2bq57vGtZK2Nbp2-c-394" value="安裝架裝tag" style="whiteSpace=wrap;rounded=1;fillColor=#999999;strokeColor=none;shadow=1;fontColor=#FFFFFF;fontStyle=0" parent="1" vertex="1">
          <mxGeometry x="3640" y="959.9999999999999" width="120" height="60" as="geometry" />
        </mxCell>
        <mxCell id="14J2bq57vGtZK2Nbp2-c-395" value="安裝軸tag" style="whiteSpace=wrap;rounded=1;fillColor=#999999;strokeColor=none;shadow=1;fontColor=#FFFFFF;fontStyle=0" parent="1" vertex="1">
          <mxGeometry x="3640" y="1040" width="120" height="60" as="geometry" />
        </mxCell>
        <mxCell id="14J2bq57vGtZK2Nbp2-c-396" value="" style="edgeStyle=elbowEdgeStyle;elbow=horizontal;rounded=0;fontColor=#000000;endArrow=none;endFill=0;strokeWidth=8;strokeColor=#23445D;" parent="1" source="177" target="14J2bq57vGtZK2Nbp2-c-394" edge="1">
          <mxGeometry width="100" height="100" relative="1" as="geometry">
            <mxPoint x="3650" y="340" as="sourcePoint" />
            <mxPoint x="3650" y="920" as="targetPoint" />
            <Array as="points">
              <mxPoint x="3620" y="630" />
            </Array>
          </mxGeometry>
        </mxCell>
        <mxCell id="14J2bq57vGtZK2Nbp2-c-397" value="" style="edgeStyle=elbowEdgeStyle;elbow=horizontal;rounded=0;fontColor=#000000;endArrow=none;endFill=0;strokeWidth=8;strokeColor=#23445D;entryX=0;entryY=0.5;entryDx=0;entryDy=0;" parent="1" source="177" target="14J2bq57vGtZK2Nbp2-c-395" edge="1">
          <mxGeometry width="100" height="100" relative="1" as="geometry">
            <mxPoint x="3650" y="340" as="sourcePoint" />
            <mxPoint x="3650" y="1000" as="targetPoint" />
            <Array as="points">
              <mxPoint x="3620" y="660" />
            </Array>
          </mxGeometry>
        </mxCell>
        <mxCell id="14J2bq57vGtZK2Nbp2-c-398" value="測試架裝tag讀取" style="whiteSpace=wrap;rounded=1;fillColor=#999999;strokeColor=none;shadow=1;fontColor=#FFFFFF;fontStyle=0" parent="1" vertex="1">
          <mxGeometry x="3640" y="1120" width="120" height="60" as="geometry" />
        </mxCell>
        <mxCell id="14J2bq57vGtZK2Nbp2-c-399" value="測試軸tag讀取" style="whiteSpace=wrap;rounded=1;fillColor=#999999;strokeColor=none;shadow=1;fontColor=#FFFFFF;fontStyle=0" parent="1" vertex="1">
          <mxGeometry x="3640" y="1200" width="120" height="60" as="geometry" />
        </mxCell>
        <mxCell id="14J2bq57vGtZK2Nbp2-c-400" value="" style="edgeStyle=elbowEdgeStyle;elbow=horizontal;rounded=0;fontColor=#000000;endArrow=none;endFill=0;strokeWidth=8;strokeColor=#23445D;entryX=0;entryY=0.5;entryDx=0;entryDy=0;" parent="1" source="177" target="14J2bq57vGtZK2Nbp2-c-398" edge="1">
          <mxGeometry width="100" height="100" relative="1" as="geometry">
            <mxPoint x="3650" y="340" as="sourcePoint" />
            <mxPoint x="3650" y="1080" as="targetPoint" />
            <Array as="points">
              <mxPoint x="3620" y="710" />
            </Array>
          </mxGeometry>
        </mxCell>
        <mxCell id="14J2bq57vGtZK2Nbp2-c-401" value="" style="edgeStyle=elbowEdgeStyle;elbow=horizontal;rounded=0;fontColor=#000000;endArrow=none;endFill=0;strokeWidth=8;strokeColor=#23445D;entryX=0;entryY=0.5;entryDx=0;entryDy=0;" parent="1" target="14J2bq57vGtZK2Nbp2-c-399" edge="1">
          <mxGeometry width="100" height="100" relative="1" as="geometry">
            <mxPoint x="3650" y="330" as="sourcePoint" />
            <mxPoint x="3650" y="1160" as="targetPoint" />
            <Array as="points">
              <mxPoint x="3620" y="750" />
            </Array>
          </mxGeometry>
        </mxCell>
        <mxCell id="14J2bq57vGtZK2Nbp2-c-402" value="專案/文件管理" style="whiteSpace=wrap;rounded=1;fillColor=#F2931E;strokeColor=none;shadow=1;fontColor=#FFFFFF;fontStyle=1;fontSize=14" parent="1" vertex="1">
          <mxGeometry x="-190" y="169.9999999999998" width="140" height="60" as="geometry" />
        </mxCell>
        <mxCell id="14J2bq57vGtZK2Nbp2-c-403" value="專案文件" style="whiteSpace=wrap;rounded=1;fillColor=#12AAB5;strokeColor=none;shadow=1;fontColor=#FFFFFF;" parent="1" vertex="1">
          <mxGeometry x="-290.0000000000002" y="300.0000000000001" width="120" height="60" as="geometry" />
        </mxCell>
        <mxCell id="14J2bq57vGtZK2Nbp2-c-404" value="產生專案章程" style="whiteSpace=wrap;rounded=1;fillColor=#999999;strokeColor=none;shadow=1;fontColor=#FFFFFF;fontStyle=0" parent="1" vertex="1">
          <mxGeometry x="-290.0000000000003" y="400.0000000000001" width="120" height="60" as="geometry" />
        </mxCell>
        <mxCell id="14J2bq57vGtZK2Nbp2-c-405" value="產生專案管理文件" style="whiteSpace=wrap;rounded=1;fillColor=#999999;strokeColor=none;shadow=1;fontColor=#FFFFFF;fontStyle=0" parent="1" vertex="1">
          <mxGeometry x="-290.0000000000001" y="480.0000000000001" width="120" height="60" as="geometry" />
        </mxCell>
        <mxCell id="14J2bq57vGtZK2Nbp2-c-406" value="" style="edgeStyle=elbowEdgeStyle;elbow=horizontal;rounded=0;fontColor=#000000;endArrow=none;endFill=0;strokeWidth=8;strokeColor=#23445D;" parent="1" source="14J2bq57vGtZK2Nbp2-c-403" target="14J2bq57vGtZK2Nbp2-c-404" edge="1">
          <mxGeometry width="100" height="100" relative="1" as="geometry">
            <mxPoint x="-310" y="330.00000000000045" as="sourcePoint" />
            <mxPoint x="-300.00000000000045" y="430" as="targetPoint" />
            <Array as="points">
              <mxPoint x="-310" y="380" />
            </Array>
          </mxGeometry>
        </mxCell>
        <mxCell id="14J2bq57vGtZK2Nbp2-c-407" value="" style="edgeStyle=elbowEdgeStyle;elbow=horizontal;rounded=0;fontColor=#000000;endArrow=none;endFill=0;strokeWidth=8;strokeColor=#23445D;" parent="1" source="14J2bq57vGtZK2Nbp2-c-403" target="14J2bq57vGtZK2Nbp2-c-405" edge="1">
          <mxGeometry width="100" height="100" relative="1" as="geometry">
            <mxPoint x="-300" y="330" as="sourcePoint" />
            <mxPoint x="-300.0000000000002" y="510" as="targetPoint" />
            <Array as="points">
              <mxPoint x="-310" y="420" />
            </Array>
          </mxGeometry>
        </mxCell>
        <mxCell id="14J2bq57vGtZK2Nbp2-c-408" value="" style="edgeStyle=elbowEdgeStyle;elbow=vertical;rounded=0;fontColor=#000000;endArrow=none;endFill=0;strokeWidth=8;strokeColor=#23445D;exitX=0.5;exitY=1;exitDx=0;exitDy=0;entryX=0.5;entryY=0;entryDx=0;entryDy=0;" parent="1" source="14J2bq57vGtZK2Nbp2-c-402" target="14J2bq57vGtZK2Nbp2-c-403" edge="1">
          <mxGeometry width="100" height="100" relative="1" as="geometry">
            <mxPoint x="-130" y="230" as="sourcePoint" />
            <mxPoint x="-230" y="300" as="targetPoint" />
          </mxGeometry>
        </mxCell>
        <mxCell id="14J2bq57vGtZK2Nbp2-c-409" value="" style="edgeStyle=elbowEdgeStyle;elbow=vertical;rounded=0;fontColor=#000000;endArrow=none;endFill=0;strokeWidth=8;strokeColor=#23445D;" parent="1" source="2" target="14J2bq57vGtZK2Nbp2-c-402" edge="1">
          <mxGeometry width="100" height="100" relative="1" as="geometry">
            <mxPoint x="2350" y="90" as="sourcePoint" />
            <mxPoint x="230" y="180" as="targetPoint" />
          </mxGeometry>
        </mxCell>
        <mxCell id="14J2bq57vGtZK2Nbp2-c-410" value="系統文件" style="whiteSpace=wrap;rounded=1;fillColor=#12AAB5;strokeColor=none;shadow=1;fontColor=#FFFFFF;" parent="1" vertex="1">
          <mxGeometry x="-60.00000000000023" y="300.0000000000001" width="120" height="60" as="geometry" />
        </mxCell>
        <mxCell id="14J2bq57vGtZK2Nbp2-c-411" value="" style="edgeStyle=elbowEdgeStyle;elbow=vertical;rounded=0;fontColor=#000000;endArrow=none;endFill=0;strokeWidth=8;strokeColor=#23445D;" parent="1" source="14J2bq57vGtZK2Nbp2-c-402" target="14J2bq57vGtZK2Nbp2-c-410" edge="1">
          <mxGeometry width="100" height="100" relative="1" as="geometry">
            <mxPoint x="-110" y="240" as="sourcePoint" />
            <mxPoint x="-280" y="310" as="targetPoint" />
          </mxGeometry>
        </mxCell>
        <mxCell id="14J2bq57vGtZK2Nbp2-c-412" value="產生系統使用說明書" style="whiteSpace=wrap;rounded=1;fillColor=#999999;strokeColor=none;shadow=1;fontColor=#FFFFFF;fontStyle=0" parent="1" vertex="1">
          <mxGeometry x="-60.000000000000284" y="400.0000000000001" width="120" height="60" as="geometry" />
        </mxCell>
        <mxCell id="14J2bq57vGtZK2Nbp2-c-413" value="" style="edgeStyle=elbowEdgeStyle;elbow=horizontal;rounded=0;fontColor=#000000;endArrow=none;endFill=0;strokeWidth=8;strokeColor=#23445D;" parent="1" source="14J2bq57vGtZK2Nbp2-c-410" edge="1">
          <mxGeometry width="100" height="100" relative="1" as="geometry">
            <mxPoint x="-60" y="330" as="sourcePoint" />
            <mxPoint x="-60" y="430" as="targetPoint" />
            <Array as="points">
              <mxPoint x="-80" y="380" />
            </Array>
          </mxGeometry>
        </mxCell>
        <mxCell id="14J2bq57vGtZK2Nbp2-c-414" value="" style="edgeStyle=elbowEdgeStyle;elbow=horizontal;rounded=0;fontColor=#000000;endArrow=none;endFill=0;strokeWidth=8;strokeColor=#23445D;" parent="1" source="14J2bq57vGtZK2Nbp2-c-410" edge="1">
          <mxGeometry width="100" height="100" relative="1" as="geometry">
            <mxPoint x="-60" y="330" as="sourcePoint" />
            <mxPoint x="-60" y="510" as="targetPoint" />
            <Array as="points">
              <mxPoint x="-80" y="420" />
            </Array>
          </mxGeometry>
        </mxCell>
        <mxCell id="14J2bq57vGtZK2Nbp2-c-415" value="產生驗收文件" style="whiteSpace=wrap;rounded=1;fillColor=#999999;strokeColor=none;shadow=1;fontColor=#FFFFFF;fontStyle=0" parent="1" vertex="1">
          <mxGeometry x="-290.0000000000001" y="560.0000000000001" width="120" height="60" as="geometry" />
        </mxCell>
        <mxCell id="14J2bq57vGtZK2Nbp2-c-416" value="" style="edgeStyle=elbowEdgeStyle;elbow=horizontal;rounded=0;fontColor=#000000;endArrow=none;endFill=0;strokeWidth=8;strokeColor=#23445D;" parent="1" source="14J2bq57vGtZK2Nbp2-c-403" target="14J2bq57vGtZK2Nbp2-c-415" edge="1">
          <mxGeometry width="100" height="100" relative="1" as="geometry">
            <mxPoint x="-280" y="340" as="sourcePoint" />
            <mxPoint x="-280" y="520" as="targetPoint" />
            <Array as="points">
              <mxPoint x="-310" y="430" />
            </Array>
          </mxGeometry>
        </mxCell>
        <mxCell id="14J2bq57vGtZK2Nbp2-c-417" value="產生故障排除說明書" style="whiteSpace=wrap;rounded=1;fillColor=#999999;strokeColor=none;shadow=1;fontColor=#FFFFFF;fontStyle=0" parent="1" vertex="1">
          <mxGeometry x="-60.000000000000284" y="480.0000000000001" width="120" height="60" as="geometry" />
        </mxCell>
        <mxCell id="14J2bq57vGtZK2Nbp2-c-418" value="佈署工具" style="whiteSpace=wrap;rounded=1;fillColor=#12AAB5;strokeColor=none;shadow=1;fontColor=#FFFFFF;" parent="1" vertex="1">
          <mxGeometry x="3387" y="300.0000000000002" width="120" height="60" as="geometry" />
        </mxCell>
        <mxCell id="14J2bq57vGtZK2Nbp2-c-419" value="" style="edgeStyle=elbowEdgeStyle;elbow=vertical;rounded=0;fontColor=#000000;endArrow=none;endFill=0;strokeWidth=8;strokeColor=#23445D;" parent="1" source="7" target="14J2bq57vGtZK2Nbp2-c-418" edge="1">
          <mxGeometry width="100" height="100" relative="1" as="geometry">
            <mxPoint x="2350" y="240" as="sourcePoint" />
            <mxPoint x="3080" y="310" as="targetPoint" />
          </mxGeometry>
        </mxCell>
        <mxCell id="14J2bq57vGtZK2Nbp2-c-420" value="產生AL-800佈署工具" style="whiteSpace=wrap;rounded=1;fillColor=#999999;strokeColor=none;shadow=1;fontColor=#FFFFFF;fontStyle=0" parent="1" vertex="1">
          <mxGeometry x="3386.999999999999" y="400.0000000000002" width="120" height="60" as="geometry" />
        </mxCell>
        <mxCell id="14J2bq57vGtZK2Nbp2-c-421" value="" style="edgeStyle=elbowEdgeStyle;elbow=horizontal;rounded=0;fontColor=#000000;endArrow=none;endFill=0;strokeWidth=8;strokeColor=#23445D;" parent="1" source="14J2bq57vGtZK2Nbp2-c-418" target="14J2bq57vGtZK2Nbp2-c-420" edge="1">
          <mxGeometry width="100" height="100" relative="1" as="geometry">
            <mxPoint x="3387" y="330" as="sourcePoint" />
            <mxPoint x="3366.9999999999995" y="430.0000000000001" as="targetPoint" />
            <Array as="points">
              <mxPoint x="3367" y="380.0000000000001" />
            </Array>
          </mxGeometry>
        </mxCell>
        <mxCell id="14J2bq57vGtZK2Nbp2-c-422" value="產生HMI佈署工具" style="whiteSpace=wrap;rounded=1;fillColor=#999999;strokeColor=none;shadow=1;fontColor=#FFFFFF;fontStyle=0" parent="1" vertex="1">
          <mxGeometry x="3386.999999999999" y="480.0000000000002" width="120" height="60" as="geometry" />
        </mxCell>
        <mxCell id="14J2bq57vGtZK2Nbp2-c-423" value="" style="edgeStyle=elbowEdgeStyle;elbow=horizontal;rounded=0;fontColor=#000000;endArrow=none;endFill=0;strokeWidth=8;strokeColor=#23445D;exitX=0;exitY=0.5;exitDx=0;exitDy=0;" parent="1" source="14J2bq57vGtZK2Nbp2-c-418" target="14J2bq57vGtZK2Nbp2-c-422" edge="1">
          <mxGeometry width="100" height="100" relative="1" as="geometry">
            <mxPoint x="3387" y="410" as="sourcePoint" />
            <mxPoint x="3366.9999999999995" y="510.0000000000001" as="targetPoint" />
            <Array as="points">
              <mxPoint x="3367" y="460.0000000000001" />
            </Array>
          </mxGeometry>
        </mxCell>
        <mxCell id="14J2bq57vGtZK2Nbp2-c-424" value="產生AL-800測試工具" style="whiteSpace=wrap;rounded=1;fillColor=#999999;strokeColor=none;shadow=1;fontColor=#FFFFFF;fontStyle=0" parent="1" vertex="1">
          <mxGeometry x="3386.999999999999" y="560.0000000000002" width="120" height="60" as="geometry" />
        </mxCell>
        <mxCell id="14J2bq57vGtZK2Nbp2-c-425" value="" style="edgeStyle=elbowEdgeStyle;elbow=horizontal;rounded=0;fontColor=#000000;endArrow=none;endFill=0;strokeWidth=8;strokeColor=#23445D;" parent="1" source="14J2bq57vGtZK2Nbp2-c-418" target="14J2bq57vGtZK2Nbp2-c-424" edge="1">
          <mxGeometry width="100" height="100" relative="1" as="geometry">
            <mxPoint x="3387" y="490" as="sourcePoint" />
            <mxPoint x="3366.9999999999995" y="590.0000000000001" as="targetPoint" />
            <Array as="points">
              <mxPoint x="3367" y="540.0000000000001" />
            </Array>
          </mxGeometry>
        </mxCell>
      </root>
    </mxGraphModel>
  </diagram>
</mxfile>
